<svg width="1373" height="778" viewBox="0 0 1373 778" fill="none" xmlns="http://www.w3.org/2000/svg">
<g id="Frame" clip-path="url(#clip0_117:889)">
<path id="background" d="M1372.86 133.72V333.18C1372.42 330.63 1372.02 328.04 1371.7 325.39V632.31C1371.54 633.21 1371.39 634.11 1371.23 635.01C1371.07 635.91 1370.92 636.82 1370.76 637.73C1370.6 638.64 1370.45 639.55 1370.3 640.46C1370.15 641.37 1369.99 642.29 1369.84 643.21C1369.49 645.323 1369.15 647.44 1368.84 649.56C1368.58 651.14 1368.33 652.72 1368.08 654.3C1367.82 655.93 1367.57 657.56 1367.32 659.19C1367.12 660.47 1366.92 661.74 1366.73 663.02C1366.67 663.38 1366.62 663.74 1366.57 664.1C1366.34 665.6 1366.11 667.1 1365.89 668.59L1365.83 669.02C1365.58 670.65 1365.34 672.29 1365.1 673.93C1364.1 680.47 1363.22 686.93 1362.34 693.36C1362.12 695.02 1361.89 696.67 1361.67 698.36C1361.31 701 1360.96 703.62 1360.62 706.19C1360.51 707.05 1360.39 707.91 1360.28 708.76C1360.13 709.88 1359.99 710.99 1359.85 712.1C1359.66 713.51 1359.48 714.92 1359.3 716.31C1359.3 716.69 1359.2 717.07 1359.16 717.45C1359.01 718.56 1358.87 719.65 1358.74 720.74C1358.36 723.733 1357.99 726.643 1357.64 729.47C1357.43 731.15 1357.23 732.8 1357.03 734.47C1356.91 735.47 1356.79 736.4 1356.68 737.34C1356.5 738.79 1356.33 740.21 1356.17 741.59C1356.11 742.11 1356.04 742.59 1355.98 743.14C1355.64 746.04 1355.31 748.8 1354.98 751.4C1354.89 752.12 1354.81 752.82 1354.73 753.51C1354.47 755.78 1354.22 757.92 1354 759.91C1353.92 760.57 1353.85 761.21 1353.78 761.84C1353.63 763.19 1353.49 764.46 1353.35 765.65C1353.28 766.37 1353.2 767.06 1353.13 767.71C1353.03 768.59 1352.94 769.41 1352.86 770.17C1352.81 770.58 1352.77 770.97 1352.73 771.34H4.85938V3.31006H1359.05C1356.12 5.64063 1353.91 8.76424 1352.7 12.3101C1351.52 16.1001 1351.7 20.5901 1349.96 24.0101C1349.85 24.2343 1349.73 24.4514 1349.6 24.6601C1349.5 24.8252 1349.4 24.9854 1349.29 25.1401C1349.24 25.2206 1349.19 25.2975 1349.13 25.3701C1348.97 25.603 1348.79 25.8236 1348.6 26.0301C1348.48 26.1795 1348.35 26.3199 1348.21 26.4501C1348.05 26.6101 1347.9 26.7601 1347.73 26.9001C1347.58 27.0301 1347.43 27.1601 1347.27 27.2801C1346.92 27.5411 1346.56 27.7751 1346.18 27.9801C1346.06 28.0597 1345.93 28.1299 1345.8 28.1901L1345.69 28.2501H1345.6C1345.38 28.3601 1345.15 28.4601 1344.92 28.5501C1344.3 28.806 1343.66 29.0133 1343.01 29.1701C1342.64 29.2701 1342.26 29.3501 1341.88 29.4201H1341.74L1341.4 29.4801C1340.98 29.5501 1340.55 29.6101 1340.12 29.6601C1339.49 29.7301 1338.86 29.7801 1338.24 29.8301C1337.55 29.9524 1336.85 29.8322 1336.24 29.4901C1334.41 28.1701 1335.24 24.1501 1333.94 22.0101C1332.3 19.3601 1329.19 21.5101 1326.87 23.0101C1321.36 26.6101 1314.87 25.3701 1308.78 24.0101C1306.02 29.7501 1303.21 35.6701 1302.25 42.3701C1301.29 49.0701 1302.61 56.8101 1306.78 60.7501C1308.78 62.6701 1311.29 63.5201 1313.38 65.3101C1315.47 67.1001 1317.2 70.4901 1316.38 73.6101C1315.11 78.3301 1309.62 78.0001 1307.38 82.0301C1301.48 75.3401 1293.15 72.6701 1285.61 75.0301C1288.44 81.2153 1290.48 87.7337 1291.67 94.4301L1284.7 96.7101C1286.11 104.44 1292.14 108.79 1297.7 111.64C1303.63 114.646 1309.79 117.171 1316.12 119.19C1318.49 119.963 1320.89 120.7 1323.32 121.4L1324.63 121.77C1325.41 121.99 1326.19 122.21 1326.98 122.41C1328.21 122.74 1329.44 123.05 1330.68 123.35C1331.3 123.51 1331.92 123.65 1332.54 123.79L1334.4 124.2L1336.27 124.59L1337.89 124.91C1338.6 125.05 1339.31 125.18 1340.02 125.29L1341.9 125.6L1343.78 125.88C1344.41 125.98 1345.03 126.06 1345.66 126.13C1346.29 126.2 1346.66 126.26 1347.14 126.31C1346.83 126.72 1346.53 127.14 1346.25 127.58C1345.97 128.02 1345.84 128.25 1345.66 128.58C1345.48 128.91 1345.25 129.34 1345.07 129.72C1344.91 130.05 1344.77 130.37 1344.63 130.72C1344.6 130.802 1344.57 130.882 1344.53 130.96C1344.21 131.725 1343.94 132.506 1343.7 133.3C1343.7 133.34 1343.7 133.38 1343.7 133.42C1343.59 133.78 1343.49 134.13 1343.4 134.48C1343.31 134.83 1343.19 135.26 1343.1 135.64C1343.01 136.02 1342.93 136.39 1342.86 136.75C1342.75 137.28 1342.65 137.8 1342.57 138.28C1342.47 138.96 1342.38 139.58 1342.32 140.13C1342.32 140.37 1342.26 140.6 1342.24 140.81C1342.24 141.037 1342.22 141.247 1342.18 141.44C1342.17 141.527 1342.17 141.613 1342.18 141.7C1342.18 141.78 1342.18 141.85 1342.18 141.92C1342.18 141.99 1342.18 142.05 1342.18 142.11C1342.18 142.34 1342.18 142.46 1342.18 142.46C1342.18 142.46 1342.57 141.79 1343.33 140.75L1343.59 140.39C1344.27 139.477 1345 138.6 1345.77 137.76C1346.28 137.2 1346.84 136.62 1347.46 136.04C1347.64 135.86 1347.83 135.69 1348.02 135.52L1348.4 135.18C1348.64 134.96 1348.9 134.74 1349.16 134.53C1349.69 134.09 1350.24 133.66 1350.83 133.25C1351.11 133.04 1351.4 132.84 1351.7 132.64L1352.54 132.11C1352.75 131.98 1352.96 131.85 1353.18 131.73C1353.4 131.61 1353.64 131.46 1353.88 131.34C1354.12 131.22 1354.33 131.09 1354.56 130.98C1354.79 130.87 1355.12 130.69 1355.4 130.57C1355.68 130.45 1355.76 130.4 1355.94 130.33L1356.67 130.02C1357.12 129.84 1357.58 129.67 1358.06 129.51C1358.38 129.4 1358.7 129.3 1359.06 129.21C1359.42 129.12 1359.98 128.96 1360.46 128.85C1361.17 128.69 1361.89 128.566 1362.62 128.48C1364.11 128.283 1365.62 128.351 1367.09 128.68C1367.35 128.75 1367.61 128.82 1367.85 128.9C1368.09 128.976 1368.33 129.066 1368.56 129.17C1368.77 129.26 1368.97 129.36 1369.16 129.46H1369.26C1369.39 129.532 1369.52 129.612 1369.65 129.7C1370.13 129.98 1370.58 130.316 1370.99 130.7C1371.18 130.88 1371.35 131.07 1371.52 131.27C1371.61 131.365 1371.69 131.465 1371.76 131.57V131.57C1371.85 131.68 1371.93 131.8 1372.01 131.91C1372.09 132.02 1372.17 132.14 1372.23 132.25C1372.32 132.388 1372.41 132.532 1372.48 132.68C1372.63 133.017 1372.76 133.364 1372.86 133.72Z" fill="#346BB3"/>
<g id="hand">
<path id="Vector" d="M987.952 434.15L988.952 446.15L967.062 461.15C962.841 459.095 958.195 458.067 953.502 458.15C934.732 458.15 913.872 456.15 883.632 476.15L853.392 496.15L832.252 501.94L822.112 497.15L817.942 489.15L807.512 484.15L830.452 472.15L856.922 461.15L875.292 449.15L924.292 427.15L951.402 424.47L964.962 423.15L987.952 434.15Z" fill="#DDEDCF"/>
<path id="Vector_2" d="M736.869 537.97L755.409 534.15L824.239 504.15L832.289 501.94L853.429 496.15L883.669 476.15C913.909 456.15 934.769 458.15 953.539 458.15C958.232 458.067 962.879 459.095 967.099 461.15C971.733 463.334 975.475 467.045 977.699 471.66V483.15L928.559 511.15L830.559 581.15L800.269 610.65L784.679 617.15L762.779 619.15L555.279 660.15L529.209 657.15L480.209 635.15L391.569 592.15L291.469 566.15L179.889 561.15L2.53906 584.74L4.14906 386.74L231.949 387.13L391.489 369.13L479.079 392.13L553.079 446.13L628.159 484.13L677.159 500.13L733.469 533.13L736.869 537.97Z" fill="#DDEDCF"/>
<path id="Vector_3" d="M951.458 413.16V424.48L924.338 427.16L875.338 449.16L856.958 461.13L830.498 472.16L807.558 484.16L802.648 479.89L848.218 452.16L878.458 424.16L901.398 412.16L904.338 411.45L930.398 405.16L947.278 408.16L951.458 413.16Z" fill="#DDEDCF"/>
<path id="Vector_4" d="M904.341 411.45L901.401 412.16L878.461 424.16L848.221 452.16L802.651 479.89L796.091 474.16L780.441 471.16L771.061 462.16L766.461 460.55L800.261 445.16H807.561L844.051 418.16L874.291 406.16H894.571L904.341 411.45Z" fill="#DDEDCF"/>
<path id="rock" d="M832.291 501.95L824.241 504.16L755.421 534.16L736.881 537.98L733.521 533.16L677.211 500.16L628.201 484.16L553.121 446.16L608.391 433.16L641.761 437.16L666.781 435.16L679.301 432.16L692.851 435.16L707.451 434.16L726.221 442.16L751.251 451.31L759.491 458.1L766.451 460.55H766.461L771.061 462.16L780.441 471.16L796.091 474.16L802.651 479.89L807.561 484.16L817.981 489.16L822.151 497.16L832.291 501.95Z" fill="#020202"/>
</g>
<g id="plant-1">
<g id="leaves">
<path id="Vector_5" d="M644.348 280.52C655.778 285.92 685.988 324.69 685.988 324.69H686.698C686.698 324.69 654.608 282.22 644.328 279.52L644.348 280.52Z" fill="#538209"/>
<path id="Vector_6" d="M683.701 275.4C679.001 299.25 689.131 331.96 689.131 331.96L688.661 333.18C688.661 333.18 677.801 293.86 683.051 274.24L683.701 275.4Z" fill="#538209"/>
<path id="Vector_7" d="M643.972 240.51L631.802 257.43C631.195 258.243 630.815 259.202 630.702 260.21C630.262 264.49 629.232 276.94 630.872 287.79L630.932 288.18C631.134 289.44 631.751 290.596 632.684 291.466C633.616 292.337 634.813 292.872 636.083 292.986C637.354 293.101 638.627 292.789 639.7 292.1C640.774 291.41 641.587 290.383 642.012 289.18L646.702 275.97C646.929 275.329 647.268 274.733 647.702 274.21L662.422 256.31C662.91 255.723 663.274 255.042 663.492 254.31C664.602 250.6 667.892 238.79 665.722 235.95C664.976 234.966 663.936 234.246 662.752 233.895C661.568 233.544 660.303 233.581 659.142 234L646.702 238.45C645.602 238.84 644.649 239.559 643.972 240.51V240.51Z" fill="#507900"/>
<path id="Vector_8" d="M688.109 261.69C688.109 261.69 679.289 268.33 680.829 275.58C682.369 282.83 686.629 285.65 690.899 282.83C695.169 280.01 699.429 280.01 699.429 274.37C699.429 268.73 695.989 260.31 688.109 261.69Z" fill="#538209"/>
<path id="Vector_9" d="M707.699 257.7C718.019 291.11 705.329 295.7 682.699 323.29C682.849 323.64 682.989 324 683.149 324.35C705.259 295.17 719.149 291.57 708.799 256.73L707.699 257.7Z" fill="#538209"/>
<path id="Vector_10" d="M706.7 241.24C706.7 241.24 679.93 237.95 681 246.73C682.07 255.51 692.45 262.97 705.23 264.94C718.01 266.91 729.59 271.62 732 266.12C734.41 260.62 728.7 248.59 706.7 241.24Z" fill="#538209"/>
</g>
<path id="stem" d="M686.03 319.43C687.63 323.12 692.25 320.79 692.25 320.79C690.916 323.796 690.205 327.041 690.16 330.33L687.07 416.18L683.97 443.37V467.64H679.84V449.56L683.97 414.82V333.06C683.818 328.655 682.383 324.39 679.84 320.79C679.84 320.79 684.85 316.7 686.03 319.43Z" fill="#98B62D"/>
</g>
<g id="white-flower-2">
<path id="stem_2" d="M532.2 772.664L527.645 752.84C524.921 742.82 521.825 734.548 518.376 729.833C513.536 723.245 509.978 715.842 507.881 707.995C504.614 695.814 505.971 686.766 505.971 686.766C497.549 683.58 488.43 682.565 479.491 683.819C476.768 684.237 474.094 684.918 471.508 685.852C468.646 686.905 465.917 688.276 463.375 689.939C451.729 697.546 441.744 707.336 434 718.742C434.804 716.856 447.16 689.153 472.383 680.705C474.456 679.997 476.579 679.442 478.737 679.045L480.235 678.799C480.235 678.799 494.681 677.935 500.884 680.931C492.717 673.516 483.652 667.106 473.891 661.843C473.509 661.637 473.107 661.441 472.705 661.234C461.405 655.488 448.306 651.568 436.584 654.996C436.584 654.996 468.151 638.296 503.317 676.608C503.317 676.608 497.204 649.77 499.507 632.225C501.809 614.68 493.143 590.887 493.143 590.887C493.143 590.887 475.801 592.194 472.886 604.542C472.886 604.542 470.463 594.719 479.149 590.357C477.282 590.583 475.4 590.675 473.519 590.632C469.759 590.465 466.271 585.72 461.827 585.062C461.827 585.062 468.864 582.675 482.497 587.213C482.497 587.213 482.497 587.017 482.426 586.693C482.165 584.954 481.119 579.502 478.717 579.816C478.717 579.816 484.447 578.942 486.649 585.209L484.336 565.739C484.336 565.739 490.78 583.264 495.234 583.913C495.234 583.913 500.351 585.376 510.545 568.706C511.42 567.281 512.324 565.709 513.279 564C513.279 564 514.516 574.374 508.142 581.948C508.544 581.653 514.958 576.928 518.969 575.071C521.666 573.89 524.639 573.439 527.575 573.765C527.575 573.765 516.416 578.097 511.309 584.158C511.309 584.158 521.362 582.635 523.373 587.616L523.684 590.209C523.684 590.209 517.029 583.284 505.87 587.616C505.87 587.616 500.301 589.787 500.602 592.381C500.904 594.974 507.831 616.409 507.579 638.915C507.465 652.937 508.157 666.955 509.65 680.901C509.65 680.901 509.067 641.43 554.146 639.19C554.146 639.19 511.771 650.183 514.637 680.155C514.637 680.155 527.273 664.928 545.44 660.154C550.048 658.922 554.846 658.51 559.604 658.936C568.843 659.771 578.866 664.044 589 674.123C588.075 673.465 575.438 664.555 559.434 663.258C553.616 662.742 547.752 663.411 542.213 665.223C533.295 668.17 524.227 674.555 516.155 686.54C515.853 690.394 515.944 694.267 516.426 698.103C517.588 708.328 520.619 718.266 525.373 727.446C528.076 732.767 530.407 738.261 532.35 743.891C535.707 753.735 538.361 763.796 540.292 774L532.2 772.664Z" fill="#89A040"/>
<path id="white-flower" d="M434.359 540.523C436.139 543.793 438.809 546.523 441.459 549.093C446.359 553.933 451.369 558.783 457.319 562.253C460.559 564.133 464.059 565.593 467.119 567.753C471.949 571.163 475.419 576.113 479.539 580.353C483.659 584.593 488.999 588.353 494.899 588.093C502.319 587.803 507.899 581.603 514.259 577.753C520.259 574.113 527.259 572.463 533.079 568.513C536.538 565.972 539.665 563.009 542.389 559.693C546.469 555.073 550.449 550.253 553.059 544.693C554.969 540.603 556.059 536.203 557.819 532.033C561.759 522.553 568.959 513.273 566.929 503.203C564.444 503.448 561.946 502.886 559.806 501.6C557.666 500.314 555.998 498.372 555.049 496.063C554.735 494.966 554.303 493.906 553.759 492.903C552.759 491.443 551.119 490.663 549.519 489.903C542.319 486.693 534.279 483.413 526.779 485.843C521.889 487.423 518.049 491.213 513.429 493.443C510.229 494.956 506.722 495.708 503.183 495.641C499.644 495.573 496.168 494.687 493.029 493.053C489.259 491.053 485.859 487.903 481.609 487.513C478.779 487.253 476.009 488.263 473.359 489.263L453.179 496.823C444.999 499.893 434.799 497.353 432.669 507.683C430.719 517.233 429.619 531.783 434.359 540.523Z" fill="#F9EBDF"/>
</g>
<g id="red-flower-2">
<path id="red-flower" d="M1268.45 272.54C1279.74 278.922 1292.16 283.065 1305.02 284.74C1307.76 285.252 1310.59 285.18 1313.3 284.53C1317.72 283.19 1320.78 279.28 1323.55 275.59L1331.97 264.37L1315.6 256.12C1314.2 255.514 1312.92 254.657 1311.83 253.59C1310.91 252.324 1310.08 250.986 1309.37 249.59C1305.83 244.09 1298.37 243.11 1291.8 242.68C1302.07 238.68 1312.43 234.6 1321.58 228.44C1324 226.82 1326.5 224.8 1327.12 221.95C1327.8 218.83 1326.05 215.77 1324.72 212.87C1323.39 209.97 1322.53 206.23 1324.63 203.82C1325.33 203.01 1326.37 202.34 1326.49 201.27C1326.62 199.98 1325.34 199.04 1324.19 198.43C1316.78 194.63 1308.55 192.721 1300.23 192.873C1291.91 193.025 1283.75 195.233 1276.49 199.3C1275.38 197.017 1274.79 194.513 1274.77 191.973C1274.75 189.432 1275.3 186.92 1276.38 184.62C1278.38 180.44 1282.12 175.48 1279.2 171.87C1278.42 171.051 1277.54 170.32 1276.6 169.69C1275.11 168.448 1274 166.817 1273.38 164.979C1272.76 163.141 1272.67 161.168 1273.11 159.28C1255.02 157.38 1236.64 171.02 1233.22 188.88C1231.22 199.24 1233.76 210.21 1230.86 220.35C1228.62 209.859 1228.15 199.066 1229.48 188.42C1229.95 184.62 1230.65 180.76 1229.91 177C1229.12 173 1226.75 169.48 1224.43 166.09C1221.15 161.3 1217.26 156.09 1211.52 155.09C1207.82 154.46 1204.02 155.76 1200.29 155.33C1198.76 155.15 1197.21 154.68 1195.72 155.05C1194.31 155.52 1193.06 156.405 1192.16 157.59C1187.95 162.498 1185.34 168.575 1184.67 175.008C1184.01 181.442 1185.32 187.924 1188.44 193.59C1182.53 194.05 1178.87 187.49 1173.99 184.13C1168.33 180.24 1160.78 180.73 1154.06 182.13C1147.34 183.53 1140.58 185.81 1133.77 184.9C1132.66 189.49 1135.96 194.13 1135.43 198.81C1135.18 201.03 1134.08 203.08 1133.88 205.3C1133.68 207.52 1134.44 209.92 1135.2 212.14C1137.82 219.68 1140.81 227.75 1147.39 232.28C1157.77 239.43 1172.79 234.97 1183.71 241.28C1176.35 243.94 1168.27 241.52 1160.64 239.78C1153.01 238.04 1144.12 237.31 1138.21 242.43C1136.57 243.85 1135.21 245.65 1133.41 246.79C1132.12 247.504 1130.75 248.042 1129.32 248.39L1115.5 252.39L1121.7 265.87C1122.3 267.436 1123.21 268.864 1124.37 270.07C1125.92 271.286 1127.79 272.032 1129.75 272.22C1137.41 273.46 1145.21 271.81 1152.75 270.22L1196.41 260.81C1206.64 258.489 1217.04 256.941 1227.5 256.18C1236.15 255.65 1244.91 259.05 1252.42 263.06C1257.93 266 1263.07 269.49 1268.45 272.54Z" fill="#D10906"/>
<g id="stem_3">
<path id="Vector_11" d="M1206.28 380.31C1179.81 355.73 1135.37 353.1 1135.37 353.1C1147.84 352.117 1160.38 353.085 1172.55 355.97C1185.37 359.13 1199.55 368.56 1207.75 375.43C1207.95 342.06 1224.27 283.2 1224.27 283.2L1222.66 262.2L1213.4 260.07C1194.73 260.77 1187.1 269.8 1187.1 269.8C1188.23 262.38 1196.6 258.8 1201.43 257.28C1199.33 256.43 1182.15 249.46 1180.63 245.87L1209.73 255.44L1208.09 248.92L1217.81 254.48C1217.81 254.48 1214.58 236.29 1216.19 232.48C1216.19 232.48 1222.66 250.67 1227.51 253.55C1229.9 252.716 1232.09 251.414 1233.97 249.72C1233.97 249.72 1235.59 252.89 1233.97 255.13C1233.97 255.13 1254.77 247.88 1258.17 242.13C1257.6 243.27 1251.44 255.5 1245.29 256.41C1245.29 256.41 1248.52 257.41 1253.37 255.41C1258.22 253.41 1267.92 253.5 1269.53 254.41C1269.53 254.41 1259.83 255.41 1256.6 256.33C1251.97 257.981 1247.13 258.935 1242.22 259.16C1241.1 259.16 1240.44 259.16 1240.44 259.16C1241.05 259.16 1241.63 259.16 1242.22 259.16C1247.32 259.16 1261.74 259.61 1263.07 265.9V267.82C1263.07 267.82 1259.83 260.16 1233.97 262.07C1233.97 262.07 1230.74 262.07 1230.74 263.99L1222.7 334.91L1218.07 369.79C1226.8 359.61 1247.88 342.79 1289.86 347.28C1287.63 347.15 1279.67 347.28 1258.26 352.14C1244.99 355.039 1233.08 362.311 1224.44 372.79C1232.38 369.46 1245.7 366.38 1266.34 368.42C1303.52 372.09 1312.49 394.23 1313.16 396.07C1312.7 394.88 1307.96 385.07 1277.65 376.07C1245.33 366.5 1229.16 379.9 1229.16 379.9C1229.16 379.9 1222.26 386.69 1217.41 385.73L1235.63 496.73L1229.16 499.6C1229.16 499.6 1212.26 413.68 1208.49 386.6C1206.15 386.286 1203.87 385.678 1201.68 384.79C1201.68 384.79 1166.12 368.51 1154.81 380C1143.5 391.49 1122.48 395.32 1122.48 395.32C1122.48 395.32 1141.88 385.75 1145.11 381.92C1148.34 378.09 1161.28 368.51 1179.11 371.38C1188.59 373.039 1197.77 376.07 1206.37 380.38L1206.28 380.31Z" fill="#1F2E05"/>
<path id="Vector_12" d="M1233.43 532.31C1233.43 532.39 1233.43 542.95 1232.37 560.31C1232.27 562.07 1232.15 563.9 1232.01 565.79C1231.81 568.68 1231.58 571.73 1231.33 574.92C1231.14 577.24 1230.93 579.64 1230.71 582.1C1230.3 586.57 1229.84 591.25 1229.3 596.1C1223.86 645.74 1211.18 715.4 1181.71 770.93H1171.98C1199.86 682.93 1213.98 624.69 1221.18 587.78C1222.05 583.267 1222.82 579.073 1223.5 575.2C1224.72 568.29 1225.63 562.35 1226.33 557.28C1228.79 539.4 1228.53 532.28 1228.53 532.28L1233.43 532.31Z" fill="#1F2E05"/>
</g>
</g>
<g id="red-flower-1">
<path id="Vector_13" d="M102.808 507.88C115.698 504.74 128.708 501.56 140.618 495.7C142.357 494.982 143.909 493.877 145.158 492.47C146.122 491.047 146.801 489.451 147.158 487.77L149.708 478.83C150.708 475.42 151.478 471.26 148.998 468.72C147.548 469.72 145.368 468.95 144.348 467.49C143.453 465.932 142.984 464.166 142.988 462.37L142.308 454.37C142.312 453.902 142.18 453.444 141.928 453.05C141.268 452.23 139.928 452.62 138.928 452.26C137.628 451.79 137.188 450.14 137.278 448.75C137.368 447.36 137.758 445.94 137.348 444.61C137.002 443.757 136.418 443.022 135.667 442.49C134.915 441.958 134.028 441.653 133.108 441.61C131.264 441.553 129.427 441.855 127.698 442.5L111.288 447.44C110.687 440.368 108.09 433.613 103.798 427.96C99.082 429.787 94.9209 432.807 91.7219 436.725C88.5229 440.643 86.3956 445.324 85.5481 450.31C79.8081 447.79 77.3181 440.97 72.4081 437.07C65.9981 431.98 56.8881 432.73 48.7681 433.74C47.4181 433.91 45.9281 434.16 45.1181 435.24C44.6346 436.036 44.3787 436.949 44.3781 437.88L43.3781 448.41C33.5141 446.1 23.3786 445.161 13.2581 445.62C12.3044 445.57 11.3584 445.814 10.5481 446.32C9.54812 447.09 9.30812 448.49 9.15812 449.75L7.69812 462.18C7.5382 463.21 7.5382 464.259 7.69812 465.29C7.94542 466.288 8.35777 467.238 8.91812 468.1C12.2848 473.818 16.6349 478.896 21.7681 483.1C16.1005 484.584 10.0941 484.061 4.76812 481.62C4.11812 481.31 3.32812 480.99 2.76812 481.39C2.45479 481.649 2.22804 481.998 2.11812 482.39C0.743838 485.868 0.0250691 489.57 -0.00187991 493.31C-0.0770519 494.516 0.157016 495.72 0.67812 496.81C2.04812 499.26 5.34812 499.58 8.11812 500C16.2381 501.25 23.4981 505.75 31.4981 507.65C35.8429 508.542 40.263 509.018 44.6981 509.07C55.1881 509.49 65.6981 509.33 76.1481 509.23C85.2381 509.13 93.8881 510.05 102.808 507.88Z" fill="#D10906"/>
<path id="stem_4" d="M149.829 608.31C149.089 607.51 139.039 596.8 125.279 593.11C120.346 591.732 115.161 591.513 110.129 592.47C102.129 594.05 93.5692 599.02 85.3192 609.67C84.6673 613.465 84.3528 617.31 84.3792 621.16C84.3387 631.473 85.9352 641.727 89.1092 651.54C90.913 657.226 92.3691 663.017 93.4692 668.88C97.2392 688.45 97.9792 709.18 97.9792 722.2C97.9792 738.2 97.7692 767.45 97.7392 770.92V771.26H91.6292C91.6292 771.26 91.6292 771.14 91.6292 770.92C91.7492 766.12 92.9492 711.92 88.4492 677.02C87.1192 666.69 85.2892 658.02 82.7792 652.85C79.2413 645.547 76.9239 637.713 75.9192 629.66C74.3392 617.11 76.4492 608.36 76.4492 608.36C76.4492 608.36 66.3692 601.36 53.7692 601.44C51.3688 601.446 48.9769 601.725 46.6392 602.27C44.0339 602.881 41.5193 603.829 39.1592 605.09C28.0899 611.038 18.3938 619.245 10.6992 629.18C11.5892 627.43 25.1592 601.86 47.9192 597.27C49.7934 596.884 51.6968 596.656 53.6092 596.59H54.9392C54.9392 596.59 67.5592 597.9 72.6292 601.79C66.4013 593.331 59.202 585.631 51.1792 578.85L50.1792 578.07C40.9592 570.69 29.9992 564.85 19.4692 566.49C19.4692 566.49 48.5792 554.7 75.1592 597.9C75.1592 597.9 72.6192 570.41 76.4192 553.4C80.2192 536.39 75.1592 511.52 75.1592 511.52C75.1592 511.52 59.9692 510.21 56.1592 522C56.1592 522 55.0692 511.91 63.0592 508.89C61.426 508.83 59.8006 508.636 58.1992 508.31C54.9492 507.59 52.4092 502.36 48.6192 501.05C48.6192 501.05 54.9492 499.74 66.3392 506.28C66.3392 506.28 66.3392 506.08 66.3392 505.75C66.2892 503.99 65.9392 498.43 63.8192 498.43C63.8192 498.43 68.8792 498.43 70.1492 504.97V485.31C70.1492 485.31 73.9392 503.63 77.7392 504.94C77.7392 504.94 82.0292 507.15 92.5892 492.18C93.4992 490.9 94.4392 489.48 95.4492 487.93C95.4492 487.93 95.4492 498.38 89.1392 504.93C89.5192 504.69 95.5692 500.98 99.2492 499.71C101.726 498.953 104.372 498.953 106.849 499.71C106.849 499.71 96.6992 502.31 91.6992 507.58C91.6992 507.58 100.549 507.58 101.829 512.81V515.43C100.149 513.094 97.7869 511.335 95.0666 510.397C92.3464 509.459 89.4022 509.386 86.6392 510.19C86.6392 510.19 81.5692 511.5 81.5692 514.12C81.5692 516.74 85.3692 538.99 82.8392 561.23C81.2935 575.135 80.4491 589.11 80.3092 603.1C80.3092 603.1 83.8692 563.94 123.219 568.48C123.219 568.48 85.3192 573.01 84.7092 603.1C84.7092 603.1 97.2592 589.93 113.509 587.93C117.669 587.406 121.891 587.715 125.929 588.84C133.809 591.06 142.069 596.79 149.829 608.31Z" fill="#89A040"/>
</g>
<g id="white-flower-1">
<path id="flower" d="M229.441 269.71C244.313 272.803 259.75 271.73 274.051 266.61C282.621 263.61 291.051 258.99 297.701 251.35C302.569 245.606 306.18 238.905 308.301 231.68C308.601 230.882 308.73 230.031 308.681 229.18C308.381 226.58 305.631 226.18 303.591 226.35C295.841 227.17 287.701 227.58 280.591 223.4C273.481 219.22 268.171 210.31 266.831 200.4C266.507 198.738 266.592 197.022 267.081 195.4C267.723 194.091 268.601 192.911 269.671 191.92C274.031 187.04 275.841 179.23 275.741 171.8C275.641 164.37 273.861 157.17 272.051 150.12L253.881 151.44C253.3 151.564 252.7 151.562 252.12 151.435C251.541 151.307 250.995 151.056 250.521 150.7C249.381 149.64 249.121 147.64 248.701 145.91C247.906 142.471 245.924 139.423 243.104 137.301C240.283 135.18 236.805 134.12 233.281 134.31C226.881 134.78 221.001 138.82 215.371 142.76L201.571 126.41C200.785 125.305 199.759 124.393 198.571 123.74C195.991 122.66 193.031 124.74 190.571 123.42C188.111 122.1 186.711 117.13 183.851 116.96C182.68 117.056 181.577 117.546 180.721 118.35C176.281 121.63 171.641 125.46 169.721 131.54C168.261 136.04 168.441 141.36 166.341 145.42C163.341 151.14 157.241 152.05 151.901 152.42C151.062 152.57 150.198 152.429 149.451 152.02C147.201 150.46 148.261 145.68 146.621 143.14C144.621 139.99 140.771 142.55 137.911 144.35C131.131 148.63 123.101 147.16 115.641 145.59C112.251 152.4 108.781 159.43 107.641 167.38C106.501 175.33 108.091 184.52 113.221 189.2C115.711 191.47 118.781 192.49 121.351 194.62C123.921 196.75 126.051 200.76 125.021 204.47C123.451 210.07 116.691 209.68 113.931 214.47C106.671 206.53 96.4108 203.36 87.1408 206.18C90.6168 213.489 93.1213 221.221 94.5908 229.18L86.0508 231.77C87.7908 240.94 95.2108 246.11 102.051 249.5C109.366 253.084 116.949 256.093 124.731 258.5C143.801 264.5 164.731 269.02 184.451 267.3C190.231 266.79 195.841 264.75 201.651 264.63C211.001 264.4 220.171 267.77 229.441 269.71Z" fill="#F9EBDF"/>
<path id="stem_5" d="M251.27 386.88C250.2 386.26 233.12 376.22 227.18 375.98C227.18 375.98 218.74 371.91 211.08 380.3C203.42 388.69 200.75 394.8 198.26 395.94C198.26 395.94 193.26 399.44 192.15 395.73C192.35 396.92 198.33 431 202.67 444.61C202.67 444.61 217.54 474.13 215.85 538.5C215.85 540.19 215.75 541.91 215.68 543.66C215.27 554.59 214.37 566.47 212.85 579.32C201.94 672.13 188.54 703.92 188.1 716.32C187.74 726.32 185.36 758.47 184.42 770.89H174.25C176.75 749.33 188 656.58 200.11 619.83C200.11 619.83 208.11 566.68 209.11 540.61C210.11 514.54 207.51 482.1 201.92 466.95C196.33 451.8 191.92 439.18 189.92 424.19C187.92 409.2 186 396.68 186 396.68C186 396.68 180.84 403.92 173.66 398.68C166.48 393.44 154.66 381.74 145.98 383.87C137.3 386 132.24 390.77 128.57 390.63C124.9 390.49 127.31 391.82 111.57 386.2C121.846 386.971 132.13 384.803 141.22 379.95C156.22 371.86 171.45 392.37 176.31 393.82C181.17 395.27 183.61 395.36 183.65 394.11C183.69 392.86 159.03 362.03 144.34 361.42C130.04 360.84 124.94 362.99 124.66 363.1C125.01 362.68 132.85 353.63 154.18 360.58C176 367.68 185.01 390.44 185.01 390.44C185.01 390.44 181.48 351.74 187.35 324.63C193.22 297.52 191.47 277.54 191.47 277.54C191.47 277.54 190.52 270.05 180.63 272.14C170.74 274.23 165.53 282.71 165.53 282.71C165.53 282.71 165.91 272.19 171.86 268.17C172.717 267.584 173.672 267.157 174.68 266.91C174.68 266.91 169.78 266.72 166.33 260.35C162.88 253.98 157.98 253.8 157.98 253.8C157.98 253.8 171.49 253.11 178.49 263.34C179.124 264.04 179.971 264.511 180.9 264.68C182.12 264.74 179.76 262.15 179.9 257.19C179.9 257.19 183.4 262.3 185.85 262.4C185.85 262.4 184.15 241.19 187.96 237.61C187.96 237.61 186.2 252.47 194.34 265.23C194.34 265.23 196.87 262.85 196.96 260.37C196.96 260.37 200.54 262.99 199.23 265.43C203.505 262.894 207.347 259.69 210.61 255.94C215.73 249.94 215.77 248.7 215.77 248.7C215.77 248.7 216.77 253.52 208.21 267.45C208.05 267.7 207.9 267.97 207.74 268.23L208.69 267.52C210.81 265.94 215.83 262.36 217.74 262.45C220.18 262.54 223.86 262.69 226.26 264.03C226.26 264.03 218.92 263.73 216.33 267.36C215.976 267.87 215.578 268.349 215.14 268.79C213.14 270.79 211.53 270.88 211.32 270.88C211.78 270.88 219.91 271.44 220.83 278.74C219.22 276.749 217.209 275.118 214.929 273.953C212.648 272.789 210.148 272.117 207.59 271.98C199.01 271.63 198.59 282.8 198.59 282.8C198.59 282.8 198.59 317.62 195.86 324.97C193.13 332.32 191.74 371.97 191.42 380.75L191.12 389.43C191.12 389.43 198.65 349.95 228.12 348.66C228.12 348.66 239.12 349.11 242.63 354.22C242.63 354.22 230.01 348.76 219.31 354.52C204.31 362.62 200.24 373.64 195.9 392.12C200.561 387.685 204.843 382.869 208.7 377.72C213.87 370.46 221.26 369.52 228.52 372.3C235.57 375 250.36 386.18 251.27 386.88Z" fill="#1F2E05"/>
</g>
<g id="red-flower-2_2">
<path id="leaf-center" d="M288.138 414.31C288.138 414.31 316.808 365.79 324.608 362.8C332.408 359.81 367.698 425.96 367.698 425.96L325.958 497.31C325.958 497.31 280.348 450.31 281.518 434.31C282.688 418.31 288.138 414.31 288.138 414.31Z" fill="#AA250A"/>
<path id="stem_6" d="M318.702 481.58C318.702 481.58 321.762 452.16 318.942 447.28C316.122 442.4 314.162 438.76 315.502 436.78C316.842 434.8 320.212 431.01 320.212 431.01C321.277 430.832 322.372 431.026 323.312 431.56C324.462 432.44 327.552 432.99 328.252 437.16C328.952 441.33 325.412 444.06 325.932 447.16C326.452 450.26 327.842 462.82 327.842 462.82C327.842 462.82 326.312 479.21 326.972 480.17C327.632 481.13 318.702 481.58 318.702 481.58Z" fill="#E9A647"/>
<path id="Vector_14" d="M347.381 526.03C360.881 609.7 338.001 770.95 338.001 770.95H327.531C349.791 630.48 336.701 522.64 336.701 522.64L347.381 526.03Z" fill="#1F2E05"/>
<path id="Vector_15" d="M318.698 770.9H265.308C261.218 740.18 242.188 605.73 215.678 543.66C214.278 540.36 212.848 537.26 211.398 534.4C211.398 534.4 213.008 535.74 215.848 538.5C233.328 555.49 297.408 626.42 318.698 770.9Z" fill="#1F2E05"/>
<path id="Vector_16" d="M484.161 511.19C484.161 511.4 483.961 515.29 476.971 586.83C476.361 593.09 475.471 599.61 474.371 606.29C472.621 616.87 470.311 627.88 467.631 638.98C454.151 694.98 431.411 753.36 424.351 770.9H356.441C372.081 749.44 431.011 665.78 464.351 579.24C466.811 572.893 469.111 566.533 471.251 560.16C476.591 544.617 480.818 528.713 483.901 512.57C483.991 512.11 484.071 511.65 484.161 511.19Z" fill="#1F2E05"/>
<g id="leaf-left">
<path id="Vector_17" d="M226.469 374.96C226.469 374.96 232.739 386.9 246.769 389.8C260.799 392.7 311.459 450.68 333.819 485.11C356.179 519.54 348.909 529.87 348.909 529.87C348.909 529.87 298.699 570.25 264.229 511.15C229.759 452.05 221.599 393.46 226.469 374.96Z" fill="#BC2715"/>
<path id="Vector_18" d="M334.489 534.12C334.489 534.12 289.199 528.86 264.929 471.95C264.929 471.95 267.989 495.43 286.529 517.1C286.529 517.1 266.439 501.37 258.969 482.58C258.969 482.58 274.399 524.44 295.909 532.94C317.419 541.44 334.489 534.12 334.489 534.12Z" fill="#1E0000"/>
</g>
<g id="leaf-right">
<path id="Vector_19" d="M384.641 342.93C385.571 344.22 388.541 394 354.701 426.75C320.861 459.5 333.421 526.31 333.421 526.31L336.101 536.74C336.101 536.74 383.341 527.55 396.501 484.02C409.661 440.49 415.251 401.02 399.951 371.79L384.641 342.93Z" fill="#A10A02"/>
<path id="Vector_20" d="M339.512 525.17C339.512 525.17 378.792 505.47 382.082 440.58C384.769 458.116 383.145 476.042 377.352 492.81C377.352 492.81 390.352 470.61 390.972 449.36C390.972 449.36 390.742 496.36 374.052 511.71C357.362 527.06 339.512 525.17 339.512 525.17Z" fill="#1E0000"/>
</g>
</g>
<g id="white-flower-3">
<g id="leaves_2">
<path id="Vector_21" d="M1027.8 770.9H995.591C994.591 754.44 991.831 715.9 983.961 627.41C983.507 622.277 982.997 617.277 982.431 612.41C981.037 600.237 979.371 588.803 977.431 578.11C975.857 569.443 974.137 561.217 972.271 553.43C952.071 468.6 917.561 437.35 916.891 436.75C942.381 446.4 962.271 476.26 977.711 514.68C981.951 525.22 985.861 536.41 989.451 547.99C991.091 553.27 992.664 558.62 994.171 564.04C996.171 571.13 998.011 578.33 999.781 585.59C1017.83 659.68 1025.36 739.51 1027.8 770.9Z" fill="#1F2E05"/>
<path id="Vector_22" d="M1243.13 575.73C1238.87 577.6 1234.73 579.707 1230.71 582.04C1229.21 582.893 1227.59 583.837 1225.86 584.87C1224.38 585.763 1222.82 586.723 1221.18 587.75C1197.71 602.62 1158.98 632.75 1122.92 686.6C1118.44 693.3 1114 700.367 1109.61 707.8C1106.28 713.54 1102.97 719.503 1099.68 725.69C1097.5 729.83 1095.35 734.073 1093.22 738.42C1088.24 748.64 1083.45 759.467 1078.86 770.9H1050.86C1051.16 770.11 1051.52 769.21 1051.86 768.19C1051.86 768.19 1051.86 768.19 1051.86 768.12C1053.56 763.86 1056.09 757.67 1059.43 750.17C1064.92 737.74 1072.55 721.61 1082.08 704.17C1083.3 701.94 1084.56 699.69 1085.84 697.42C1094.42 682.091 1103.89 667.272 1114.19 653.04C1119.19 646.17 1124.47 639.44 1129.97 633.04C1156.14 602.41 1187.74 578.18 1223.39 575.25C1224.04 575.18 1224.7 575.14 1225.39 575.11C1227.32 574.98 1229.27 574.93 1231.24 574.94C1235.22 574.934 1239.19 575.198 1243.13 575.73V575.73Z" fill="#1F2E05"/>
</g>
<path id="leaf-left_2" d="M1084.32 419.019C1084.32 419.019 1019.52 488.809 1017.42 540.179C1015.32 591.549 1021.69 583.849 1021.69 583.849C1021.69 583.849 1074.9 521.989 1078.09 505.509C1081.28 489.029 1093.32 419.949 1089.82 416.949C1086.32 413.949 1084.32 419.019 1084.32 419.019Z" fill="#F9EBDF"/>
<path id="leaf-center_2" d="M1079.76 425.56C1079.76 425.56 1055.14 517.56 1077.31 563.94C1099.48 610.32 1101.52 600.55 1101.52 600.55C1101.52 600.55 1119.6 520.98 1114.72 504.93C1109.84 488.88 1088.16 422.18 1083.72 421.15C1079.28 420.12 1079.76 425.56 1079.76 425.56Z" fill="#F9EBDF"/>
<path id="leaf-right_2" d="M1081.98 421.719C1081.98 421.719 1101.77 514.869 1142.57 546.149C1183.37 577.429 1180.76 567.789 1180.76 567.789C1180.76 567.789 1160.76 488.669 1149.14 476.589C1137.52 464.509 1087.93 414.889 1083.46 416.019C1078.99 417.149 1081.98 421.719 1081.98 421.719Z" fill="#F9EBDF"/>
<path id="bud" d="M1085.7 427.31C1085.7 427.31 1089.31 499.03 1088.1 516.23C1086.89 533.43 1090.34 528.15 1090.34 528.15C1091 524.11 1091 519.99 1090.34 515.95C1089.26 509.22 1088.84 427.31 1088.84 427.31H1085.7V427.31Z" fill="#1F2E05"/>
<path id="stem_7" d="M1031.42 565.98C1055.7 691.41 1051.96 768.31 1051.96 768.31L1059.96 769.09C1059.96 769.09 1059.79 706.61 1049.17 639.09C1038.55 571.57 1024.39 507.45 1024.39 507.45C1024.39 507.45 1004.56 432.9 1005.18 425.58C1005.8 418.26 996.251 376.71 1018 351.75C1039.75 326.79 1061.61 338.75 1064.44 343.96C1067.27 349.17 1075.96 362.31 1076.21 372.18C1076.46 382.05 1070.21 404.82 1072.79 412.46C1075.37 420.1 1077.93 428.96 1078.91 430.29C1079.89 431.62 1088.66 431.45 1088.66 431.45L1095.54 426.98L1097.15 407.98L1086.3 381.79L1083.45 364.31C1083.45 364.31 1071.45 338.53 1059.89 333.71C1048.33 328.89 1025.89 323.02 1014.62 340.38C1003.35 357.74 998.331 378.18 999.291 405.38C999.897 422.006 1001.4 438.586 1003.79 455.05L1031.42 565.98Z" fill="#1F2E05"/>
</g>
<g id="blue-flower-2">
<path id="Vector_23" d="M1136.27 148.47C1125.27 171.13 1109 197.47 1109 197.47L1073.93 251.89L1045.08 290L1032.14 329.15L1027.56 343.03L1025.19 350.2L1013.91 400.65L1007.47 439.31L1004.47 457.57L989.471 547.95L987.371 560.31L988.291 568.37L991.701 598.55L1011.38 770.9H994.701L977.931 620.22L973.701 581.9L971.301 560.36L972.301 553.36L977.701 514.65L995.001 391.31L1001.1 375.31L1014.1 341.18L1035.7 284.59L1102.23 190.23C1102.23 190.23 1133.1 136.51 1134.53 116.84C1135.96 97.1701 1137.7 79.3101 1126.95 64.9201C1117.69 52.4701 1117.63 51.6301 1117.8 51.6301C1116.34 50.8901 1085.02 35.4701 1067.52 50.0301C1055.26 60.2301 1047.19 73.9401 1043.32 81.5601C1041.53 85.0901 1040.64 87.3101 1040.64 87.3101L1033.64 81.9801C1033.64 81.9801 1034.07 81.2601 1034.86 79.9801C1040.45 71.0701 1064.35 34.9801 1084.42 33.9801C1107.32 32.9101 1117.84 41.8701 1117.84 41.8701C1117.84 41.8701 1140.44 49.3101 1144.38 76.3101C1148.32 103.31 1147.3 125.82 1136.27 148.47Z" fill="#89A040"/>
<g id="Group 9">
<path id="Vector_24" d="M997.17 88.54C991.58 91.46 985.99 94.38 980.59 97.68C973.19 102.2 966.17 107.44 958.59 111.68C949.474 116.792 939.599 120.414 929.34 122.41C935.68 126.703 941.715 131.431 947.4 136.56C942.9 142.01 938.24 147.82 936.93 155C936.1 159.58 936.72 164.35 937.54 169C938.732 175.756 940.328 182.435 942.32 189C943.44 192.68 945.32 196.9 948.86 197.61C951.71 198.17 954.38 196.15 957.25 195.85C960.88 195.46 964.25 197.85 967.25 200.26C971.01 203.4 974.56 206.81 978.11 210.26C980.905 212.847 983.546 215.595 986.02 218.49C988.74 221.81 991.58 225.83 995.66 226.23C999.74 226.63 1003.44 222.94 1007.66 222.81C1009.55 222.909 1011.42 223.262 1013.22 223.86C1017.94 224.948 1022.88 224.665 1027.45 223.042C1032.02 221.419 1036.03 218.525 1039.01 214.7C1041.79 219.58 1044.79 224.323 1048.01 228.93C1048.43 229.689 1049.07 230.307 1049.84 230.71C1050.6 230.953 1051.42 230.906 1052.14 230.58C1058.05 228.4 1059.91 220.22 1065.23 216.78C1067.23 215.52 1069.5 214.98 1071.51 213.78C1076.51 210.86 1078.75 204.65 1080.64 198.92C1082.92 192.02 1085.23 184.92 1084.92 177.52C1084.74 173.35 1083.73 169.25 1083.33 165.09C1082.71 158.67 1083.55 152.24 1083.5 145.8C1083.37 132.369 1079.38 119.259 1072.03 108.02C1070.18 105.22 1068.1 102.51 1066.94 99.32C1065.85 96.32 1065.65 93.01 1064.68 89.94C1062.12 81.86 1052.86 73.69 1044.81 72.69C1041.35 72.26 1037.81 73.38 1034.47 74.04C1028.4 75.1764 1022.45 76.8874 1016.7 79.15C1010.04 81.86 1003.59 85.19 997.17 88.54Z" fill="#4983BE"/>
<path id="Vector_25" d="M1021.57 134.92C1010.1 130.83 1003.74 126.75 1003.74 132.2C1003.74 137.65 1006.28 143.88 1012.65 144.85C1019.02 145.82 1021.57 149.91 1026.65 151.28C1031.73 152.65 1034.3 158.09 1036.85 156.73C1039.4 155.37 1033.02 144.46 1029.2 140.37C1027.08 138.018 1024.48 136.158 1021.57 134.92V134.92Z" fill="#C2D071"/>
</g>
</g>
<g id="blue-flower-1">
<g id="stem_8">
<path id="Vector_26" d="M482.984 771.593L473.454 772C473.014 766.543 471.744 750.926 469.874 729.039C469.024 719.048 468.044 707.747 466.954 695.513C465.434 678.359 463.714 659.378 461.834 639.585C459.984 620.049 458.004 599.739 455.934 579.657C452.164 543.106 448.124 507.288 444.154 478.168L443.974 476.878C442.294 464.526 440.684 452.074 439.194 439.741C439.114 439.156 439.054 438.571 438.984 437.995C440.061 438.097 441.143 438.143 442.224 438.134C442.224 438.134 442.674 438.134 443.374 438.204C444.912 438.277 446.454 438.164 447.964 437.866C448.601 437.746 449.206 437.5 449.744 437.142C449.944 436.983 450.444 436.646 451.164 436.15C451.614 436.09 452.074 436.021 452.544 435.971C452.214 452.362 452.144 466.302 452.144 472.949C455.904 505.374 459.194 534.315 462.094 560.141C463.984 576.83 465.684 592.208 467.254 606.396C470.734 638.146 473.464 663.843 475.604 684.778C476.604 694.64 477.474 703.421 478.244 711.239C482.194 752.127 482.984 766.642 482.984 771.593Z" fill="#C2D071"/>
<path id="Vector_27" d="M496.025 314.033C494.155 315.58 492.719 317.579 491.855 319.838C485.973 320.141 480.148 321.14 474.505 322.814C468.255 324.799 462.945 325.553 457.505 362.094C455.505 375.34 454.345 395.401 453.625 415.592C450.745 418.569 448.125 421.545 445.995 423.986C445.285 424.809 444.635 425.573 444.055 426.268C441.945 428.778 440.685 430.385 440.685 430.385C440.685 430.385 439.105 426.278 436.685 420.692C429.455 342.707 430.775 271.043 432.205 234.977C433.403 234.111 434.733 233.441 436.145 232.993C437.055 233.906 437.995 234.779 438.965 235.602C435.745 285.647 438.845 348.005 444.705 410.592C447.995 348.69 458.775 321.574 466.365 317.903C475.705 313.379 487.195 311.603 496.025 314.033Z" fill="#C2D071"/>
<path id="Vector_28" d="M520.312 390.907C520.312 390.907 487.132 391.582 473.792 394.965C468.012 396.433 460.542 402.009 453.932 407.863C453.152 408.548 452.382 409.242 451.632 409.927C448.632 412.675 445.892 415.384 443.632 417.646L441.632 419.759C439.432 422.081 438.102 423.569 438.102 423.569C438.102 423.569 437.532 421.942 436.552 419.352C435.992 417.884 435.312 416.098 434.552 414.124C431.452 406.365 426.782 395.679 422.352 389.488C418.352 383.892 407.812 373.871 398.872 365.736L395.372 362.59C390.962 358.622 387.282 355.437 385.522 353.929L384.402 352.937C384.402 352.937 386.032 373.772 391.272 386.393C392.912 390.361 394.912 393.467 397.322 394.886C399.905 396.512 402.364 398.323 404.682 400.303V400.303C408.112 403.15 411.962 406.613 415.682 410.086C424.682 418.519 433.052 427.042 433.052 427.042C427.343 425.965 421.727 424.453 416.252 422.518C411.822 420.88 407.722 418.797 405.792 416.386C405.792 416.386 405.792 416.386 405.792 416.336C405.791 416.366 405.791 416.396 405.792 416.426C408.651 420.848 412.072 424.887 415.972 428.441C421.102 433.094 427.972 437.539 436.102 438.68C437.096 438.825 438.098 438.915 439.102 438.948H439.312C439.312 438.948 439.762 439.007 440.452 439.067C441.979 439.204 443.517 439.157 445.032 438.928C445.674 438.837 446.289 438.618 446.842 438.283C446.932 438.224 447.062 438.124 447.242 438.015L448.242 437.36L449.532 437.251H449.612C450.542 437.172 451.502 437.102 452.472 437.063C457.202 436.825 461.982 437.013 464.142 438.382C466.912 440.158 464.042 434.999 458.412 431.179C468.302 425.315 481.642 417.815 486.872 416.634C495.312 414.709 520.312 390.907 520.312 390.907ZM440.482 438.323H440.242L440.302 438.045L440.552 436.934L440.492 438.055C440.492 438.174 440.482 438.243 440.482 438.323Z" fill="#1F2E05"/>
</g>
<g id="flower-2">
<path id="Vector_29" d="M632.084 339.84C631.084 341.675 632.394 343.957 633.504 345.793C636.093 350.076 637.901 354.778 638.844 359.683C639.044 360.745 639.164 361.995 638.454 362.739C637.795 363.225 637.026 363.541 636.214 363.662C634.004 364.406 632.794 366.827 631.744 369C629.658 373.33 627.345 377.55 624.814 381.64C623.785 383.562 622.365 385.251 620.644 386.601C618.874 387.821 616.734 388.258 614.774 389.131C611.084 390.768 608.174 393.824 604.694 395.898C601.214 397.971 597.224 398.963 593.294 399.946C583.944 402.297 574.434 404.658 564.754 404.152C559.105 403.68 553.509 402.707 548.034 401.245C543.694 400.298 539.422 399.068 535.244 397.564C526.584 394.26 518.784 388.754 511.124 383.297C508.911 381.881 506.894 380.183 505.124 378.247C503.588 376.24 502.299 374.058 501.284 371.748C497.224 363.493 493.164 355.209 489.734 346.636C487.014 339.81 484.664 332.597 485.064 325.305C485.131 324.193 485.268 323.086 485.474 321.991C486.105 318.378 487.677 314.992 490.034 312.168C490.875 311.179 491.831 310.293 492.884 309.529C495.254 307.822 497.154 307.922 499.974 307.991C503.723 307.938 507.459 307.539 511.134 306.801C521.644 305.084 532.394 305.034 543.074 304.985L558.844 304.925C566.284 304.925 573.794 304.856 581.154 306.295C599.314 309.896 615.314 322.011 633.314 326.416C637.494 327.408 641.814 328.043 645.744 329.908C643.171 333.427 639.619 336.123 635.524 337.667C634.184 338.153 632.744 338.6 632.084 339.84Z" fill="#4983BE"/>
<path id="Vector_30" d="M541.221 351.567C552.681 355.625 559.051 359.683 559.051 354.276C559.051 348.869 556.501 342.677 550.131 341.715C543.761 340.753 541.221 336.695 536.131 335.345C531.041 333.996 528.491 328.579 525.941 329.938C523.391 331.297 529.761 342.102 533.581 346.16C535.701 348.493 538.308 350.338 541.221 351.567Z" fill="#C2D071"/>
</g>
<g id="flower-1">
<path id="Vector_31" d="M526.385 188.921C527.695 191.768 529.045 194.874 528.575 197.979C528.215 200.42 526.775 202.494 525.385 204.478C522.912 208.017 520.435 211.556 517.955 215.094C512.795 222.456 507.555 229.917 500.765 235.622C483.375 250.197 456.505 249.91 438.955 235.513C437.955 234.719 437.055 233.876 436.145 233.003C434.738 233.42 433.405 234.053 432.195 234.878C428.285 237.517 425.315 241.903 422.445 245.931C418.685 251.199 413.805 256.646 407.555 256.716C403.555 256.716 399.855 254.523 396.205 252.698C387.431 248.305 377.722 246.07 367.895 246.179C364.705 246.229 361.245 246.447 358.585 244.552C356.918 243.167 355.617 241.4 354.795 239.402C345.195 219.797 347.715 194.279 360.925 177.352C362.55 175.515 363.943 173.49 365.075 171.32C367.565 165.783 365.735 159.106 362.975 153.679C360.215 148.252 356.535 143.231 355.055 137.278C354.22 133.286 354.007 129.19 354.425 125.134C355.213 114.042 357.67 103.13 361.715 92.7595C363.435 88.3642 365.475 84.0185 368.585 80.5955C371.695 77.1725 375.935 74.7119 380.025 72.4498C385.938 69.1888 391.888 66.0073 397.875 62.9051C399.53 61.8927 401.385 61.2463 403.315 61.01C406.465 60.8414 409.315 62.8257 411.915 64.7307C417.475 68.792 423.032 72.8533 428.585 76.9146C435.115 81.6968 440.365 86.5882 444.185 94.0097C448.115 90.289 451.005 85.9235 455.975 83.0958C467.385 76.6764 481.635 76.8749 493.505 82.4509C505.375 88.0269 514.865 98.5737 520.745 110.847C522.977 115.373 524.552 120.19 525.425 125.154C527.078 135.362 524.738 145.81 518.885 154.363C517.075 156.913 514.885 159.582 515.025 162.777C515.195 164.306 515.66 165.788 516.395 167.143C519.728 174.412 523.058 181.671 526.385 188.921Z" fill="#4983BE"/>
<path id="Vector_32" d="M462.812 190.806C463.935 190.482 464.963 189.897 465.812 189.099C466.626 188.057 467.184 186.841 467.442 185.547L470.202 175.784C470.708 174.271 470.994 172.694 471.052 171.101C471.052 169.048 470.242 167.133 469.792 165.089C468.962 161.408 469.222 157.499 468.182 153.877C466.482 147.924 461.042 143.43 455.182 143.122C453.532 143.033 451.782 143.221 450.322 142.398C449.572 141.981 448.952 141.316 448.202 140.89C446.292 139.798 443.942 140.463 441.892 141.247C432.332 144.918 422.892 151.833 420.302 162.271C419.895 163.713 419.77 165.218 419.932 166.706C420.272 169.216 421.782 171.399 422.242 173.899C422.702 176.4 422.092 178.86 422.702 181.261C422.758 181.606 422.931 181.921 423.192 182.154C423.581 182.35 424.025 182.409 424.452 182.323C426.762 182.323 428.202 184.962 428.912 187.284C429.622 189.605 430.352 192.344 432.482 193.306C433.368 193.611 434.295 193.788 435.232 193.832C437.912 194.189 440.402 195.439 443.002 196.193C446.722 197.265 448.662 196.283 451.792 194.616C455.192 192.84 459.242 192.115 462.812 190.806Z" fill="#C2D071"/>
</g>
</g>
<g id="blue-flower-3">
<path id="stem_9" d="M1312.44 739.23C1307.44 739.71 1288.02 744.84 1288.02 744.84C1296.86 745.89 1296.1 753.23 1296.1 753.23C1292.71 747.52 1283.46 750.67 1283.46 750.67L1281.96 770.9H1276.15L1277.56 749.97C1261.1 748.97 1246.99 731.85 1242.77 726.24C1249.03 732.08 1275.46 741.63 1276.38 741.96C1241.38 715.08 1242.12 679.96 1242.12 679.96C1278.7 709.16 1280.22 730.96 1279.97 736.31C1286.62 666.49 1287.97 633.64 1287.86 618.25C1287.78 606.13 1286.78 604.84 1286.78 604.84L1291.68 604.04V613.59L1291.74 615.59L1292.34 635.97L1291.48 663.48L1288.1 696.01L1284.22 743.31C1284.22 743.31 1284.54 740.16 1298.92 725.93C1314.81 710.21 1350.14 720.32 1350.14 720.32C1340.11 730.83 1317.45 738.77 1312.44 739.23Z" fill="#1F2E05"/>
<g id="Group 13">
<path id="Vector_33" d="M1230.16 489.31C1224.92 490.79 1220.7 494.87 1216.93 499.03C1212.62 503.8 1208.53 509.03 1206.31 515.19C1203.44 523.19 1203.96 532.19 1206.19 540.41C1206.75 542.934 1207.82 545.316 1209.33 547.41C1211.17 549.69 1213.81 551.01 1216.33 552.28L1237.01 562.54C1232.91 564.9 1228.56 567.54 1226.45 571.96C1223.77 577.63 1225.53 584.45 1227.34 590.51C1228.21 593.43 1229.12 596.43 1230.87 598.86C1234.99 604.58 1243.49 606.95 1244.67 614.05C1244.91 615.5 1244.83 617.05 1245.67 618.28C1246.51 619.51 1248.02 619.87 1249.41 620.15C1261.06 622.52 1273.41 624.25 1284.53 619.81C1295.65 615.37 1304.75 602.75 1301.94 590.43C1310.67 598.83 1322.38 603.423 1334.49 603.2C1341.49 603.01 1348.81 600.86 1353.4 595.2C1361.16 585.71 1358.11 571.32 1358.07 558.71C1358.07 553.48 1358.63 548.15 1357.42 543.08C1355.23 533.92 1346.69 526.98 1337.85 527.17C1337.18 527.276 1336.5 527.118 1335.94 526.73C1335.69 526.383 1335.52 525.984 1335.44 525.562C1335.36 525.14 1335.37 524.705 1335.48 524.29L1337.9 502.41C1338.27 500.309 1338.23 498.154 1337.77 496.07C1337.15 494.325 1336.23 492.704 1335.04 491.28C1328.04 481.89 1320.64 472.14 1310.31 467.45C1305.56 465.431 1300.51 464.221 1295.36 463.87C1290.79 463.45 1286.09 463.43 1281.75 465.01C1275.82 467.17 1271.19 472.08 1266.75 476.83C1262.31 481.58 1258.32 488.83 1252.01 489.89C1244.77 491.21 1237.54 487.45 1230.16 489.31Z" fill="#4983BE"/>
<path id="Vector_34" d="M1276.19 522.41C1273.52 523.56 1271.16 525.33 1269.31 527.573C1267.46 529.817 1266.16 532.469 1265.54 535.31C1264.44 540.969 1265.44 546.834 1268.35 551.81C1271.18 556.587 1275.06 560.659 1279.7 563.72C1280.69 564.498 1281.83 565.042 1283.06 565.31C1284.29 565.389 1285.51 565.205 1286.66 564.77C1290.11 563.77 1293.66 562.65 1296.48 560.3C1297.94 559.009 1299.26 557.568 1300.42 556C1302.45 553.618 1304.16 550.991 1305.53 548.18C1306.62 545.658 1307.2 542.947 1307.23 540.201C1307.27 537.455 1306.76 534.729 1305.74 532.18C1301.22 521.06 1286.11 518.43 1276.19 522.41Z" fill="#C2D071"/>
</g>
</g>
<g id="grass-1">
<path id="Vector_35" d="M46.9311 650.96C33.7011 699.54 26.2911 761.69 25.2311 770.9H16.6211C16.3611 765.31 12.9011 683.18 34.7011 634.53C39.4947 624.082 43.5057 613.292 46.7011 602.25C47.1811 600.51 47.6077 598.843 47.9811 597.25C50.0811 588.35 50.4811 582.17 50.2711 578.03C50.2087 576.247 49.9505 574.476 49.5011 572.75C50.188 574.738 50.7689 576.761 51.2411 578.81C52.568 584.648 53.3811 590.59 53.6711 596.57C53.7411 598.11 53.8011 599.73 53.8311 601.4C53.9911 614.11 52.4711 630.67 46.9311 650.96Z" fill="#1F2E05"/>
<path id="Vector_36" d="M125.879 588.84C125.699 590.22 125.499 591.65 125.279 593.09C122.279 612.72 115.059 637.96 98.1388 661.92C96.5122 664.18 94.9555 666.493 93.4688 668.86C91.7288 671.527 90.0622 674.24 88.4688 677C65.1488 716.83 56.2388 760 54.2588 770.9H37.4588C36.9988 760.03 34.8488 675.31 75.9288 629.64C77.4688 627.92 79.0688 626.27 80.7388 624.64C81.9788 623.45 83.1988 622.27 84.3788 621.11C93.6383 612.176 102.244 602.588 110.129 592.42C111.329 590.86 112.429 589.35 113.459 587.9C127.049 568.73 126.939 559.38 126.829 557.99C127.601 568.278 127.283 578.619 125.879 588.84V588.84Z" fill="#1F2E05"/>
<path id="Vector_37" d="M529.378 659.06C529.378 659.06 504.818 668.91 480.758 710.78C477.758 716.04 474.758 721.78 471.758 728.11C465.373 741.958 460.025 756.26 455.758 770.9H438.238C445.668 735.45 457.558 711.25 470.308 694.71C473.101 691.101 476.106 687.661 479.308 684.41C504.238 659.07 529.378 659.06 529.378 659.06Z" fill="#1F2E05"/>
<path id="Vector_38" d="M726.04 770.9H715.22C702.51 685.62 676.05 663.97 675.09 663.2C676.33 663.4 716.29 670.89 726.04 770.9Z" fill="#1F2E05"/>
<path id="Vector_39" d="M762.381 666.31C747.521 714.31 746.861 753.9 747.481 770.91H734.641C735.531 747.39 739.531 679.28 756.821 643.6C777.941 600.02 784.611 578.01 784.611 578.01C784.611 578.01 782.301 601.86 762.381 666.31Z" fill="#1F2E05"/>
<path id="Vector_40" d="M770.44 770.9H752.82L761.09 754.9C785.89 705.53 779.5 655.31 779.5 655.31C792.28 695.67 776.99 750.7 770.44 770.9Z" fill="#1F2E05"/>
<path id="Vector_41" d="M1114.09 770.9H1097.53L1096.12 756.39C1095.48 750.342 1094.51 744.334 1093.22 738.39C1090.67 726.631 1086.99 715.147 1082.22 704.1C1071.57 679.39 1058.98 664.33 1058.22 663.42C1069.22 672.13 1078.44 684.29 1085.99 697.35C1091.21 706.469 1095.79 715.939 1099.7 725.69C1104.79 738.282 1109.07 751.188 1112.5 764.33C1113.28 767.41 1113.81 769.67 1114.09 770.9Z" fill="#1F2E05"/>
<path id="Vector_42" d="M1122.92 686.6C1119.34 726.22 1123.44 756.73 1126.07 770.9H1113.14C1112.93 768.94 1112.71 766.75 1112.48 764.33C1111.16 750.46 1109.62 729.55 1109.61 707.8C1109.61 688.8 1110.78 669.15 1114.3 653C1115.02 649.66 1115.84 646.47 1116.78 643.48C1131.31 596.92 1134.7 574.06 1134.7 574.06C1134.7 574.06 1135.5 590.18 1130.08 632.96C1128.9 642.32 1127.42 652.96 1125.56 664.96C1124.41 672.45 1123.55 679.67 1122.92 686.6Z" fill="#1F2E05"/>
<path id="Vector_43" d="M1152.06 770.9H1134.63L1142.22 752.51C1162.52 701.83 1152.66 653.17 1152.35 651.64C1169.35 692.94 1156.35 753.6 1152.06 770.9Z" fill="#1F2E05"/>
</g>
<g id="yellow-flower-1">
<path id="stem_10" d="M919.3 375.61V376.69C919.12 383.09 918.66 390.78 917.87 400.03C912.6 461.31 896.06 683.2 890.76 754.62C890.76 755.26 890.66 755.89 890.62 756.51C890.17 762.51 889.82 767.39 889.56 770.85C889.56 770.95 889.56 771.05 889.56 771.15C889.56 771.42 889.51 771.7 889.5 771.95H887.04C887.04 771.95 887.1 771.68 887.21 771.15H880C880 771.05 880 770.95 880 770.85C880.38 764.08 881.15 750.73 882.2 733.12C886.99 652.27 897.53 481.86 903.06 448.86C907.13 424.54 908.15 396.76 908.25 376.96V376.84C908.25 367.6 908.14 360.11 908 355.54C907.91 352.37 907.84 350.61 907.84 350.61L908.96 350.75C908.96 350.75 918.43 335.69 919.29 365.69C919.39 368.56 919.39 371.85 919.3 375.61Z" fill="#89A040"/>
<g id="leaves_3">
<path id="Vector_44" d="M899.889 771.18H814.619L814.419 770.9C759.679 696.73 797.869 489 797.869 489C797.869 489 852.159 658.43 882.219 734.77C885.359 742.77 888.219 749.72 890.759 755.36L890.969 755.82C894.679 764.08 897.599 769.43 899.459 770.9C899.59 771.011 899.734 771.106 899.889 771.18V771.18Z" fill="#1F2E05"/>
<path id="Vector_45" d="M1017.3 552.07C1012.09 563.557 1006.23 574.738 999.749 585.56C997.329 589.66 994.649 594.02 991.749 598.56C989.069 602.75 986.169 607.09 983.069 611.56C982.859 611.84 982.659 612.14 982.449 612.44C980.801 614.965 979.298 617.583 977.949 620.28C957.949 659.63 935.949 759.6 933.469 770.96L933.239 771.96H887.039C887.039 771.96 887.099 771.7 887.209 771.19C887.209 771.11 887.209 771.01 887.279 770.91C887.729 768.91 888.849 764.08 890.639 757.17C890.749 756.73 890.869 756.28 890.989 755.83C900.499 719.55 927.389 630.89 973.679 581.91C974.919 580.6 976.159 579.34 977.419 578.09C980.871 574.659 984.506 571.418 988.309 568.38C990.229 566.85 992.179 565.38 994.159 564.02C1001.26 558.955 1009.06 554.931 1017.3 552.07V552.07Z" fill="#1F2E05"/>
</g>
<g id="yellow-flower">
<path id="Vector_46" d="M855.231 260.49C853.231 278.31 902.691 360.67 912.641 360.67C922.591 360.67 957.001 273.67 957.001 273.67C957.001 273.67 922.591 145.98 898.421 161.67C874.251 177.36 856.701 241.4 856.701 241.4L855.231 260.49Z" fill="#CCCC00"/>
<path id="Vector_47" d="M997.762 187.09C997.762 187.09 907.522 284.09 905.042 305.21C902.562 326.33 901.442 353.4 926.592 359.74C951.742 366.08 987.442 332.83 995.392 272.03C1003.34 211.23 997.762 187.09 997.762 187.09Z" fill="#D8CF2C"/>
<path id="Vector_48" d="M906.122 283.36C906.122 283.36 897.542 297.66 907.552 300.51C917.562 303.36 907.552 281.41 907.552 281.41L906.122 283.36Z" fill="#1E0000"/>
<path id="Vector_49" d="M928.849 351.46C770.539 407.58 813.229 189.04 813.229 189.04C813.229 189.04 848.849 278.12 897.809 290.53C946.769 302.94 928.809 351.46 928.809 351.46H928.849Z" fill="#D8CF2C"/>
<path id="Vector_50" d="M843.229 327.76C844.63 327.634 846.039 327.884 847.311 328.483C848.584 329.083 849.674 330.01 850.469 331.17C849.204 327.258 846.848 323.789 843.679 321.17C842.329 320.07 840.679 318.87 840.539 317.17L848.109 321.91C845.939 314.27 837.109 310.01 834.539 302.46C840.924 308.673 848.027 314.101 855.699 318.63C853.681 315.336 851.932 311.885 850.469 308.31C852.269 309.11 853.319 311.11 854.469 312.8C856.641 315.985 859.737 318.427 863.339 319.8C863.004 315.844 861.465 312.085 858.929 309.03C861.716 309.647 864.21 311.195 865.999 313.42C867.549 315.32 868.539 317.61 869.869 319.67C872.096 323.162 875.26 325.959 878.999 327.74C878.256 325.525 877.813 323.222 877.679 320.89C880.239 321.99 881.369 325.14 883.129 327.44C885.319 330.33 888.619 331.96 891.619 333.85C896.278 336.812 900.411 340.53 903.849 344.85C905.115 346.397 906.158 348.114 906.949 349.95C907.246 350.5 907.342 351.137 907.219 351.75C907.057 352.131 906.781 352.452 906.429 352.67C903.679 354.67 899.979 354.67 896.499 354.59L889.789 354.47C888.053 354.548 886.322 354.227 884.729 353.53C879.702 351.643 874.732 349.547 869.819 347.24C867.441 346.215 865.186 344.923 863.099 343.39C859.849 340.86 857.339 337.24 853.819 335.21C850.299 333.18 845.409 331.13 843.229 327.76Z" fill="#1E0000"/>
<path id="Vector_51" d="M926.989 342.4C928.425 341.193 929.96 340.109 931.579 339.16C939.645 333.725 945.56 325.643 948.299 316.31C949.299 312.84 949.929 309.08 952.239 306.26C954.449 307.45 954.539 310.66 954.359 313.34C961.489 307.28 962.419 296.18 968.949 289.42C968.756 291.671 969.281 293.926 970.449 295.86C974.029 290.333 977.409 284.683 980.589 278.91C981.396 279.069 982.141 279.457 982.733 280.028C983.325 280.599 983.741 281.329 983.929 282.13C984.329 283.813 984.329 285.567 983.929 287.25C982.929 292.59 980.459 297.66 979.379 302.98C978.759 306.04 978.589 309.17 977.679 312.18C976.479 316.18 974.049 319.7 971.679 323.18L967.459 329.29C966.384 330.929 965.195 332.489 963.899 333.96C962.069 335.845 960.037 337.522 957.839 338.96C948.409 345.453 938.093 350.556 927.209 354.11C926.487 354.43 925.684 354.521 924.909 354.37C921.009 353.1 925.019 344.23 926.989 342.4Z" fill="#1E0000"/>
</g>
</g>
<path id="Vector_52" d="M1367.7 3.31003H1359.04C1359.91 2.55003 1360.81 1.84003 1361.69 1.16003C1362.37 0.503279 1363.26 0.103749 1364.2 0.0300293C1364.58 0.0816245 1364.94 0.208166 1365.27 0.402218C1365.6 0.596271 1365.88 0.85392 1366.11 1.16003C1366.7 1.76003 1367.19 2.56003 1367.7 3.31003Z" fill="#F9EBDF"/>
<g id="white-flower-4">
<path id="flower_2" d="M1371.77 5.54V107.45C1371.64 107 1371.51 106.55 1371.39 106.1C1371.27 105.64 1371.15 105.18 1371.04 104.72C1370.93 104.26 1370.89 104.09 1370.82 103.72C1370.75 103.35 1370.7 103.2 1370.65 102.94C1370.46 102.08 1370.3 101.23 1370.16 100.4C1370.1 100.09 1370.05 99.78 1370 99.47C1369.86 98.6 1369.75 97.74 1369.65 96.91C1369.65 96.51 1369.56 96.12 1369.52 95.73C1369.48 95.34 1369.43 94.8 1369.39 94.35L1369.33 93.49C1369.33 92.81 1369.25 92.16 1369.22 91.49C1369.19 90.82 1369.22 90.49 1369.22 90C1369.22 89.76 1369.22 89.53 1369.22 89.31C1369.22 88.6 1369.22 87.95 1369.22 87.37C1369.22 86.96 1369.22 86.59 1369.22 86.25C1369.22 85.91 1369.22 85.85 1369.22 85.67C1369.22 85.49 1369.22 85.35 1369.22 85.21V85.15C1369.22 85.01 1369.22 84.88 1369.22 84.78C1369.22 84.68 1369.22 84.67 1369.22 84.61C1369.22 84.55 1369.22 84.51 1369.22 84.47C1369.22 84.2 1369.22 84.06 1369.22 84.06C1364.77 88.73 1366.77 116.02 1366.77 116.02C1363.77 115.89 1359.58 109.31 1359.58 109.31C1359.37 115.7 1362.22 119.03 1360.74 118.96C1359.26 118.89 1357.83 117.23 1357.83 117.23C1357.6 116.87 1357.36 116.51 1357.11 116.17C1356.86 115.83 1356.69 115.59 1356.46 115.31L1356.2 114.98C1356.04 114.77 1355.86 114.56 1355.69 114.36C1355.52 114.16 1355.52 114.17 1355.43 114.07C1355.34 113.97 1355.15 113.75 1355 113.6C1354.98 113.571 1354.95 113.544 1354.92 113.52C1354.85 113.436 1354.77 113.359 1354.69 113.29L1354.58 113.17C1354.42 113 1354.26 112.84 1354.09 112.68C1353.73 112.33 1353.36 112 1352.99 111.68C1352.62 111.36 1352.49 111.26 1352.23 111.06C1351.7 110.636 1351.15 110.239 1350.58 109.87C1350.46 109.781 1350.34 109.701 1350.21 109.63L1349.85 109.4L1349.46 109.17C1349.23 109.02 1348.99 108.89 1348.75 108.76L1348.17 108.45L1347.5 108.11L1346.5 107.66H1346.43H1346.33C1346.12 107.56 1345.92 107.48 1345.72 107.4C1345.52 107.32 1345.05 107.13 1344.72 107.01L1343.79 106.68H1343.66L1342.76 106.4C1342.44 106.3 1342.13 106.22 1341.82 106.14C1341.67 106.091 1341.52 106.051 1341.36 106.02L1340.9 105.91L1340.5 105.82L1339.89 105.69L1339.07 105.53L1338.43 105.43C1337.93 105.35 1337.43 105.29 1337.02 105.24L1336.48 105.18C1336.01 105.18 1335.59 105.1 1335.2 105.08H1334.46C1333.54 105.08 1333.01 105.08 1333.01 105.08C1333.01 105.08 1338.92 105.34 1343.1 113.53C1343.57 114.464 1344.1 115.36 1344.71 116.21C1344.77 116.307 1344.84 116.401 1344.91 116.49C1345.18 116.85 1345.45 117.183 1345.72 117.49C1345.96 117.77 1346.2 118.04 1346.44 118.29C1346.58 118.438 1346.72 118.578 1346.87 118.71C1347.01 118.85 1347.15 118.98 1347.29 119.1L1347.43 119.22C1347.55 119.32 1347.66 119.42 1347.77 119.5C1347.88 119.58 1348.1 119.77 1348.26 119.88L1348.54 120.08C1348.67 120.177 1348.8 120.267 1348.94 120.35C1349.19 120.52 1349.45 120.67 1349.69 120.8L1350.08 121L1350.41 121.16L1350.82 121.34L1351.33 121.53C1351.58 121.62 1351.82 121.69 1352.02 121.74H1352.22H1352.45H1352.71H1352.84H1352.99H1353.09C1351.86 122.066 1350.71 122.615 1349.68 123.36C1348.7 124.076 1347.83 124.932 1347.1 125.9C1346.61 125.9 1346.1 125.79 1345.62 125.72C1345.14 125.65 1344.37 125.57 1343.74 125.47L1341.86 125.19L1339.98 124.88C1339.27 124.77 1338.56 124.64 1337.85 124.5L1336.23 124.18L1334.36 123.79L1332.5 123.38C1331.88 123.24 1331.26 123.1 1330.64 122.94C1329.4 122.64 1328.17 122.33 1326.94 122C1326.15 121.8 1325.37 121.58 1324.59 121.36L1323.28 120.99C1320.85 120.29 1318.45 119.553 1316.08 118.78C1309.75 116.761 1303.59 114.236 1297.66 111.23C1292.09 108.38 1286.06 104.03 1284.66 96.3L1291.6 94.12C1290.41 87.4237 1288.37 80.9052 1285.54 74.72C1293.08 72.35 1301.41 75.02 1307.31 81.72C1309.55 77.72 1315.04 78.02 1316.31 73.3C1317.15 70.18 1315.42 66.8 1313.31 65C1311.2 63.2 1308.73 62.36 1306.71 60.44C1302.54 56.5 1301.22 48.75 1302.18 42.06C1303.14 35.37 1305.95 29.44 1308.71 23.7C1314.77 25.02 1321.29 26.26 1326.8 22.7C1329.12 21.18 1332.23 19.03 1333.87 21.7C1335.2 23.84 1334.34 27.86 1336.17 29.18C1336.78 29.5221 1337.48 29.6424 1338.17 29.52C1338.79 29.52 1339.42 29.42 1340.05 29.35C1340.48 29.3 1340.91 29.24 1341.33 29.17L1341.67 29.11H1341.81C1342.19 29.04 1342.57 28.96 1342.94 28.86C1343.59 28.7033 1344.23 28.496 1344.85 28.24C1345.08 28.15 1345.31 28.05 1345.53 27.94H1345.62L1345.73 27.88C1345.86 27.8199 1345.99 27.7497 1346.11 27.67C1346.49 27.4651 1346.86 27.231 1347.2 26.97C1347.36 26.85 1347.51 26.72 1347.66 26.59C1347.83 26.4505 1347.99 26.3002 1348.14 26.14C1348.28 26.0098 1348.41 25.8694 1348.53 25.72C1348.72 25.5135 1348.9 25.2929 1349.06 25.06C1349.12 24.9874 1349.17 24.9105 1349.22 24.83C1349.33 24.6753 1349.43 24.5151 1349.53 24.35C1349.66 24.1413 1349.78 23.9242 1349.89 23.7C1351.59 20.28 1351.45 15.79 1352.63 12C1353.83 8.45784 1356.03 5.33463 1358.95 3H1367.77C1368.27 3.85009 1368.95 4.57782 1369.77 5.13C1370.38 5.46124 1371.08 5.60391 1371.77 5.54V5.54Z" fill="#F9EBDF"/>
<g id="stem_11">
<path id="Vector_53" d="M1371.23 635.02C1371.39 634.12 1371.54 633.22 1371.7 632.32V687.09C1370.56 691.666 1369.81 696.329 1369.45 701.03C1369.03 713.44 1366.31 752.74 1365.11 769.73V770.14C1365.11 770.55 1365.06 770.93 1365.03 771.31H1352.7C1352.7 770.94 1352.78 770.55 1352.83 770.14C1352.91 769.38 1353 768.56 1353.1 767.68C1353.17 767.03 1353.25 766.34 1353.32 765.62C1353.46 764.43 1353.6 763.16 1353.75 761.81C1353.82 761.18 1353.89 760.54 1353.97 759.88C1354.19 757.88 1354.44 755.75 1354.7 753.48C1354.78 752.79 1354.86 752.09 1354.95 751.37C1355.25 748.77 1355.58 746.01 1355.95 743.11C1356.01 742.6 1356.08 742.11 1356.14 741.56C1356.3 740.18 1356.47 738.76 1356.65 737.31C1356.76 736.37 1356.88 735.41 1357 734.44C1357.2 732.82 1357.4 731.17 1357.61 729.44C1357.96 726.613 1358.32 723.703 1358.71 720.71C1358.84 719.62 1358.98 718.53 1359.13 717.42C1359.13 717.04 1359.22 716.66 1359.27 716.28C1359.45 714.89 1359.63 713.48 1359.82 712.07C1359.96 710.96 1360.1 709.85 1360.25 708.73C1360.36 707.88 1360.48 707.02 1360.59 706.16C1360.93 703.59 1361.28 700.97 1361.64 698.33C1361.86 696.69 1362.09 695.04 1362.31 693.33C1363.19 686.95 1364.11 680.44 1365.07 673.9C1365.31 672.26 1365.55 670.62 1365.8 668.99L1365.86 668.56C1366.08 667.06 1366.31 665.56 1366.54 664.07C1366.54 663.71 1366.64 663.35 1366.7 662.99C1366.89 661.71 1367.09 660.44 1367.29 659.16C1367.54 657.53 1367.79 655.9 1368.05 654.27C1368.3 652.69 1368.55 651.11 1368.81 649.53C1369.15 647.41 1369.48 645.293 1369.81 643.18C1369.96 642.26 1370.11 641.35 1370.27 640.43C1370.43 639.51 1370.58 638.61 1370.73 637.7C1370.88 636.79 1371.07 635.92 1371.23 635.02Z" fill="#1F2E05"/>
<path id="Vector_54" d="M1372.93 165.89V332.89C1372.49 330.34 1372.09 327.75 1371.77 325.1C1371.77 324.89 1371.77 324.68 1371.69 324.47C1369.38 305.14 1366.94 289.03 1366.94 289.03C1366.94 289.03 1360.7 298.36 1352.03 291.59C1350.17 290.14 1348.03 288.3 1345.78 286.35C1339.6 281.05 1332.21 274.86 1325.45 272.86C1323.23 272.103 1320.85 271.981 1318.57 272.51C1308.11 275.27 1301.97 281.4 1297.57 281.21C1293.17 281.02 1296.04 282.75 1277 275.51C1289.49 276.499 1301.98 273.693 1312.85 267.46C1318.7 264.1 1324.57 264.56 1330.04 266.8C1335.94 269.22 1341.39 273.7 1345.82 277.66C1350.02 281.42 1353.32 284.66 1355.26 285.32C1361.11 287.17 1364.08 287.32 1364.13 285.7C1364.13 284.82 1356.06 273.65 1345.82 263.03C1336.39 253.27 1325.12 243.96 1316.62 243.6C1311.65 243.34 1306.67 243.44 1301.72 243.9C1295.57 244.54 1293.04 245.67 1292.83 245.76C1293.83 244.568 1295.02 243.554 1296.35 242.76C1301.12 239.76 1311.1 236.43 1328.51 242.47C1334.86 244.741 1340.72 248.21 1345.77 252.69C1359.77 264.76 1365.77 281.02 1365.77 281.02C1365.77 281.02 1361.5 231.18 1368.6 196.26C1369.99 189.38 1371.03 182.86 1371.8 176.82C1372.26 172.94 1372.63 169.3 1372.93 165.89Z" fill="#1F2E05"/>
<path id="Vector_55" d="M1371.39 106.1C1371.51 106.55 1371.64 107 1371.77 107.45V131.45C1371.69 131.345 1371.61 131.245 1371.53 131.15C1371.36 130.95 1371.19 130.76 1371 130.58C1370.59 130.195 1370.14 129.86 1369.66 129.58C1369.53 129.492 1369.4 129.412 1369.27 129.34H1369.17C1368.98 129.24 1368.78 129.14 1368.57 129.05C1368.34 128.946 1368.1 128.856 1367.86 128.78C1367.61 128.689 1367.36 128.615 1367.1 128.56C1365.63 128.231 1364.12 128.163 1362.63 128.36C1361.9 128.446 1361.18 128.57 1360.47 128.73C1359.99 128.84 1359.53 128.96 1359.07 129.09C1358.61 129.22 1358.42 129.28 1358.07 129.39C1357.59 129.55 1357.13 129.72 1356.68 129.9L1355.95 130.21C1355.77 130.283 1355.59 130.363 1355.41 130.45C1355.13 130.57 1354.85 130.71 1354.57 130.86C1354.29 131.01 1354.11 131.09 1353.89 131.22C1353.67 131.35 1353.42 131.47 1353.19 131.61C1352.96 131.75 1352.76 131.86 1352.55 131.99L1351.71 132.52C1351.41 132.72 1351.12 132.92 1350.84 133.13C1350.25 133.54 1349.7 133.97 1349.17 134.41C1348.91 134.62 1348.65 134.84 1348.41 135.06L1348.03 135.4C1347.84 135.57 1347.65 135.74 1347.47 135.92C1346.85 136.5 1346.29 137.08 1345.78 137.64C1345.01 138.479 1344.28 139.357 1343.6 140.27L1343.34 140.63C1342.58 141.63 1342.19 142.34 1342.19 142.34C1342.19 142.34 1342.19 142.22 1342.19 141.99C1342.19 141.93 1342.19 141.87 1342.19 141.8C1342.19 141.73 1342.19 141.66 1342.19 141.58C1342.18 141.493 1342.18 141.406 1342.19 141.32C1342.19 141.133 1342.21 140.923 1342.25 140.69C1342.25 140.48 1342.25 140.25 1342.33 140.01C1342.39 139.46 1342.48 138.84 1342.58 138.16C1342.67 137.67 1342.76 137.16 1342.87 136.63C1342.94 136.27 1343.03 135.89 1343.11 135.52C1343.19 135.15 1343.3 134.75 1343.41 134.36C1343.52 133.97 1343.6 133.66 1343.71 133.3C1343.7 133.26 1343.7 133.22 1343.71 133.18C1343.95 132.41 1344.23 131.62 1344.54 130.84C1344.58 130.762 1344.61 130.682 1344.64 130.6C1344.78 130.27 1344.92 129.95 1345.08 129.6C1345.27 129.22 1345.46 128.83 1345.67 128.46C1345.88 128.09 1346.05 127.78 1346.26 127.46C1346.47 127.14 1346.84 126.6 1347.15 126.19C1347.88 125.222 1348.75 124.366 1349.73 123.65C1350.76 122.905 1351.91 122.356 1353.14 122.03H1353.04H1352.89H1352.76H1352.5H1352.27H1352.07C1351.87 122.03 1351.63 121.91 1351.38 121.82L1350.87 121.63L1350.46 121.45L1350.13 121.29L1349.74 121.09C1349.5 120.96 1349.24 120.81 1348.99 120.64C1348.85 120.557 1348.72 120.467 1348.59 120.37L1348.31 120.17C1348.15 120.06 1347.99 119.93 1347.82 119.79L1347.48 119.51L1347.34 119.39C1347.2 119.27 1347.06 119.14 1346.92 119C1346.77 118.868 1346.62 118.727 1346.49 118.58C1346.25 118.33 1346.01 118.06 1345.77 117.78C1345.53 117.5 1345.23 117.12 1344.96 116.78C1344.89 116.691 1344.82 116.597 1344.76 116.5C1344.15 115.649 1343.62 114.753 1343.15 113.82C1338.97 105.63 1333.06 105.37 1333.06 105.37C1333.06 105.37 1333.59 105.37 1334.51 105.37H1335.25C1335.64 105.37 1336.06 105.42 1336.53 105.47L1337.07 105.53C1337.51 105.53 1337.98 105.64 1338.48 105.72L1339.12 105.82L1339.94 105.98L1340.55 106.11L1340.95 106.2L1341.41 106.31C1341.56 106.34 1341.72 106.381 1341.87 106.43L1342.81 106.69L1343.71 106.97H1343.84L1344.77 107.3C1345.1 107.42 1345.44 107.55 1345.77 107.69L1346.38 107.95H1346.48H1346.55L1347.55 108.4L1348.22 108.74L1348.8 109.05C1349.04 109.18 1349.28 109.31 1349.51 109.46L1349.9 109.69L1350.26 109.92C1350.39 109.99 1350.51 110.071 1350.63 110.16C1351.2 110.529 1351.75 110.926 1352.28 111.35C1352.54 111.55 1352.79 111.75 1353.04 111.97C1353.29 112.19 1353.78 112.61 1354.14 112.97C1354.31 113.13 1354.47 113.29 1354.63 113.46L1354.74 113.58L1354.97 113.81C1355 113.834 1355.02 113.861 1355.05 113.89C1355.2 114.04 1355.34 114.2 1355.48 114.36C1355.62 114.52 1355.66 114.55 1355.74 114.65C1355.82 114.75 1356.09 115.06 1356.25 115.27L1356.51 115.6C1356.74 115.88 1356.95 116.17 1357.16 116.46C1357.37 116.75 1357.65 117.16 1357.88 117.52C1357.88 117.52 1359.31 119.18 1360.79 119.25C1362.27 119.32 1359.42 115.99 1359.63 109.6C1359.63 109.6 1363.86 116.18 1366.82 116.31C1366.82 116.31 1364.82 88.9899 1369.37 84.3799C1369.37 84.3799 1369.37 84.5199 1369.37 84.7899C1369.37 84.7899 1369.37 84.8799 1369.37 84.9299C1369.37 84.9799 1369.37 85.0399 1369.37 85.0999C1369.37 85.1599 1369.37 85.3299 1369.37 85.4699V85.5299C1369.37 85.6699 1369.37 85.8199 1369.37 85.9899C1369.37 86.1599 1369.37 86.3599 1369.37 86.5699C1369.37 86.7799 1369.37 87.2799 1369.37 87.6899C1369.37 88.2799 1369.37 88.9199 1369.37 89.6299C1369.37 89.8499 1369.37 90.0799 1369.37 90.3199C1369.37 90.7999 1369.37 91.3199 1369.37 91.8099C1369.37 92.2999 1369.43 93.0799 1369.48 93.8099L1369.54 94.6699C1369.54 95.1199 1369.62 95.5799 1369.67 96.0499C1369.72 96.5199 1369.75 96.8299 1369.8 97.2299C1369.9 98.0599 1370.01 98.9199 1370.15 99.7899C1370.15 100.1 1370.25 100.41 1370.31 100.72C1370.45 101.55 1370.61 102.4 1370.8 103.26C1370.85 103.52 1370.91 103.78 1370.97 104.04C1371.03 104.3 1371.11 104.67 1371.19 105.04C1371.27 105.41 1371.42 105.96 1371.54 106.42C1371.38 106.07 1371.39 106.08 1371.39 106.1Z" fill="#1F2E05"/>
</g>
</g>
</g>
<defs>
<clipPath id="clip0_117:889">
<rect width="1372.86" height="777.97" fill="white"/>
</clipPath>
</defs>
</svg>
