<svg width="1366" height="768" viewBox="0 0 1366 768" fill="none" xmlns="http://www.w3.org/2000/svg">
<g id="Frame">
<path id="background" d="M1366 0H0V768H1366V0Z" fill="#346BB3"/>
<g id="hand">
<path id="Vector" d="M945 440.56L946 452.56L925 467.56C920.977 465.512 916.513 464.482 912 464.56C894 464.56 874 462.56 845 482.56L816 502.56L795.72 508.35L786 503.56L782 495.56L772 490.56L794 478.56L819.38 467.56L837 455.56L884 433.56L910 430.89L923 429.56L945 440.56Z" fill="#DDEDCF"/>
<path id="Vector_2" d="M704.22 544.38L722 540.56L788 510.56L795.72 508.35L816 502.56L845 482.56C874 462.56 894 464.56 912 464.56C916.513 464.482 920.977 465.512 925 467.56C929.472 469.82 933.039 473.538 935.11 478.1V489.59L887.99 517.59L793.99 587.59L764.99 617.09L749.99 623.59L728.99 625.59L529.99 666.59L504.99 663.59L457.99 641.59L372.99 598.59L276.99 572.59L169.99 567.59L0 591.15V392.5L220 393.54L373 375.54L457 398.54L528 452.54L600 490.54L647 506.54L701 539.54L704.22 544.38Z" fill="#DDEDCF"/>
<path id="Vector_3" d="M910.001 419.56V430.89L884.001 433.56L837.001 455.56L819.381 467.53L794.001 478.56L772.001 490.56L767.301 486.29L811.001 458.56L840.001 430.56L862.001 418.56L864.821 417.85L889.811 411.56L906.001 414.56L910.001 419.56Z" fill="#DDEDCF"/>
<path id="Vector_4" d="M864.82 417.85L862 418.56L840 430.56L811 458.56L767.3 486.29L761 480.56L746 477.56L737 468.56L732.59 466.95L765 451.56H772L807 424.56L836 412.56H855.45L864.82 417.85Z" fill="#DDEDCF"/>
</g>
<g id="dirt">
<path id="Vector_5" d="M795.72 508.35L788 510.56L722 540.56L704.22 544.38L701 539.56L647 506.56L600 490.56L528 452.56L581 439.56L613 443.56L637 441.56L649 438.56L662 441.56L676 440.56L694 448.56L718 457.71L725.9 464.5L732.58 466.95H732.59L737 468.56L746 477.56L761 480.56L767.3 486.29L772 490.56L782 495.56L786 503.56L795.72 508.35Z" fill="#020202"/>
</g>
</g>
</svg>
