<svg width="1369" height="768" viewBox="0 0 1369 768" fill="none" xmlns="http://www.w3.org/2000/svg">
<g id="Frame" clip-path="url(#clip0_138:11)">
<path id="background" d="M1368.87 0H2.87109V768H1368.87V0Z" fill="#346BB3"/>
<path id="Union" fill-rule="evenodd" clip-rule="evenodd" d="M751.78 527.63L733.26 531.45L729.95 526.61L673.72 493.61L624.78 477.61L549.78 439.61L475.85 385.61L388.38 362.61L229.08 380.61L1.61 380.22L0 578.22L177.01 554.66L288.43 559.66L388.38 585.66L476.89 628.66L525.83 650.66L551.83 653.66L759.03 612.66L780.9 610.66L796.47 604.16L826.71 574.66L924.59 504.66L973.65 476.66V465.17C971.455 460.555 967.741 456.834 963.13 454.63L963.125 454.627L984.971 439.63L983.971 427.63L961.061 416.67L947.531 418L922.266 420.451L947.521 417.96V406.63L943.361 401.63L926.501 398.63L900.481 404.92L890.721 399.63H870.471L840.281 411.63L803.831 438.63H796.541L762.801 454.02L767.391 455.63L776.761 464.63L792.381 467.63L803.82 477.62L803.801 477.63L814.211 482.63L818.371 490.63L828.491 495.42L849.611 489.63L879.811 469.63C891.703 461.752 902.142 457.288 911.574 454.77C902.146 457.288 891.711 461.753 879.82 469.63L849.62 489.63L828.5 495.42L820.5 497.63L751.78 527.63ZM853.171 454.6L855.893 452.823L853.131 454.63L841.598 459.43L853.171 454.6ZM949.58 451.63C950.166 451.62 950.752 451.627 951.336 451.651L949.58 451.63Z" fill="#DDEDCF"/>
<path id="dirt" d="M828.53 495.42L820.49 497.63L751.77 527.63L733.26 531.45L729.9 526.63L673.68 493.63L624.74 477.63L549.77 439.63L604.96 426.63L638.28 430.63L663.27 428.63L675.76 425.63L689.299 428.63L703.88 427.63L722.62 435.63L747.609 444.78L755.83 451.57L762.789 454.02H762.799L767.39 455.63L776.76 464.63L792.38 467.63L798.94 473.36L803.83 477.63L814.25 482.63L818.409 490.63L828.53 495.42Z" fill="#020202"/>
<path id="leaves-end" d="M731.362 259.6C729.362 264.24 720.792 261.6 710.512 259.5C715.702 285.63 702.852 291.32 683.342 316.79L682.902 317.37L682.742 317.58L683.042 317.98C683.042 318.05 683.042 318.11 683.042 318.17H682.412C682.412 318.17 653.292 280.75 641.412 274.32L638.492 282.63C638.067 283.831 637.255 284.856 636.183 285.543C635.112 286.231 633.841 286.542 632.573 286.427C631.305 286.313 630.111 285.779 629.18 284.91C628.249 284.041 627.634 282.887 627.432 281.63L627.372 281.24C625.742 270.39 626.762 257.94 627.202 253.66C627.306 252.658 627.668 251.701 628.252 250.88L640.492 234C641.169 233.05 642.122 232.331 643.222 231.94L655.642 227.45C656.802 227.033 658.064 226.998 659.246 227.348C660.428 227.699 661.467 228.418 662.212 229.4C664.372 232.24 661.092 244.05 659.982 247.76C659.764 248.492 659.4 249.172 658.912 249.76L644.192 267.69C643.757 268.213 643.418 268.809 643.192 269.45L641.822 273.35C651.742 277.64 676.622 309.63 682.092 316.76L682.612 316.13C680.122 304.69 676.922 286.26 678.612 272.98C678.033 271.728 677.604 270.412 677.332 269.06C675.792 261.81 684.602 255.17 684.602 255.17C692.472 253.78 695.902 262.17 695.902 267.85C695.902 273.53 691.642 273.49 687.382 276.31C684.382 278.31 681.452 277.5 679.382 274.42C677.862 288.94 680.722 305.42 683.052 315.6C703.132 291.34 715.052 285.14 709.242 259.24C707.732 258.94 706.182 258.66 704.622 258.42C691.862 256.42 681.512 248.98 680.432 240.21C679.352 231.44 706.092 234.72 706.092 234.72C728.052 242.07 733.772 254.09 731.362 259.6Z" fill="#538209"/>
<path id="leaves-start" d="M683.871 319H681.871V321H683.871V319Z" fill="#538209"/>
<path id="stem" d="M682.489 312.91C684.089 316.6 688.689 314.27 688.689 314.27C687.367 317.279 686.664 320.523 686.619 323.81L683.519 409.66L680.429 436.86V461.12H676.309V443L680.429 408.26V326.54C680.278 322.136 678.846 317.872 676.309 314.27C676.309 314.27 681.319 310.18 682.489 312.91Z" fill="#98B62D"/>
</g>
<defs>
<clipPath id="clip0_138:11">
<rect width="1368.87" height="768" fill="white"/>
</clipPath>
</defs>
</svg>
