<svg fill="none" xmlns="http://www.w3.org/2000/svg" viewBox="0 0 1369 768">
  <g clip-path="url(#clip0_138:11)">
    <path d="M1368.87 0H2.87109v768H1368.87V0Z" fill="#346BB3"/>
    <path fill-rule="evenodd" clip-rule="evenodd" d="m751.78 527.63-18.52 3.82-3.31-4.84-56.23-33-48.94-16-75-38-73.93-54-87.47-23-159.3 18-227.47-.39-1.61 198 177.01-23.56 111.42 5 99.95 26 88.51 43 48.94 22 26 3 207.2-41 21.87-2 15.57-6.5 30.24-29.5 97.88-70 49.06-28v-11.49c-2.195-4.615-5.909-8.336-10.52-10.54l-.005-.003 21.846-14.997-1-12-22.91-10.96-13.53 1.33-25.265 2.451 25.255-2.491v-11.33l-4.16-5-16.86-3-26.02 6.29-9.76-5.29h-20.25l-30.19 12-36.45 27h-7.29l-33.74 15.39 4.59 1.61 9.37 9 15.62 3 11.439 9.99-.019.01 10.41 5 4.16 8 10.12 4.79 21.12-5.79 30.2-20c11.892-7.878 22.331-12.342 31.763-14.86-9.428 2.518-19.863 6.983-31.754 14.86l-30.2 20-21.12 5.79-8 2.21-68.72 30Zm101.391-73.03 2.722-1.777-2.762 1.807-11.533 4.8 11.573-4.83Zm96.409-2.97c.586-.01 1.172-.003 1.756.021l-1.756-.021Z" fill="#DDEDCF"/>
    <path d="m828.53 495.42-8.04 2.21-68.72 30-18.51 3.82-3.36-4.82-56.22-33-48.94-16-74.97-38 55.19-13 33.32 4 24.99-2 12.49-3 13.539 3 14.581-1 18.74 8 24.989 9.15 8.221 6.79 6.959 2.45h.01l4.591 1.61 9.37 9 15.62 3 6.56 5.73 4.89 4.27 10.42 5 4.159 8 10.121 4.79Z" fill="#020202"/>
    <path d="M683.871 319h-2v2h2v-2ZM731.362 259.6c-2 4.64-10.57 2-20.85-.1 5.19 26.13-7.66 31.82-27.17 57.29l-.44.58-.16.21.3.4v.19h-.63s-29.12-37.42-41-43.85l-2.92 8.31c-.425 1.201-1.237 2.226-2.309 2.913-1.071.688-2.342.999-3.61.884-1.268-.114-2.462-.648-3.393-1.517-.931-.869-1.546-2.023-1.748-3.28l-.06-.39c-1.63-10.85-.61-23.3-.17-27.58.104-1.002.466-1.959 1.05-2.78l12.24-16.88c.677-.95 1.63-1.669 2.73-2.06l12.42-4.49c1.16-.417 2.422-.452 3.604-.102 1.182.351 2.221 1.07 2.966 2.052 2.16 2.84-1.12 14.65-2.23 18.36-.218.732-.582 1.412-1.07 2l-14.72 17.93c-.435.523-.774 1.119-1 1.76l-1.37 3.9c9.92 4.29 34.8 36.28 40.27 43.41l.52-.63c-2.49-11.44-5.69-29.87-4-43.15-.579-1.252-1.008-2.568-1.28-3.92-1.54-7.25 7.27-13.89 7.27-13.89 7.87-1.39 11.3 7 11.3 12.68s-4.26 5.64-8.52 8.46c-3 2-5.93 1.19-8-1.89-1.52 14.52 1.34 31 3.67 41.18 20.08-24.26 32-30.46 26.19-56.36-1.51-.3-3.06-.58-4.62-.82-12.76-2-23.11-9.44-24.19-18.21-1.08-8.77 25.66-5.49 25.66-5.49 21.96 7.35 27.68 19.37 25.27 24.88ZM679 460h-2v2h2v-2Z" fill="#538209"/>
    <path d="M682.489 312.91c1.6 3.69 6.2 1.36 6.2 1.36-1.322 3.009-2.025 6.253-2.07 9.54l-3.1 85.85-3.09 27.2v24.26h-4.12V443l4.12-34.74v-81.72c-.151-4.404-1.583-8.668-4.12-12.27 0 0 5.01-4.09 6.18-1.36Z" fill="#98B62D"/>
  </g>
  <defs>
    <clipPath id="clip0_138:11">
      <path fill="#fff" d="M0 0h1368.87v768H0z"/>
    </clipPath>
  </defs>
</svg>
