<svg width="1366" height="769" viewBox="0 0 1366 769" fill="none" xmlns="http://www.w3.org/2000/svg">
<g id="THE FINAL AAMP SVG!">
<g id="Frame">
<rect width="1366" height="768" transform="translate(0 1)" fill="black"/>
</g>
<g id="THE CHAIN">
<g id="TopGroup">
<g id="Yellow-Frame-top">
<g id="Union">
<path fill-rule="evenodd" clip-rule="evenodd" d="M672.314 83.4359L635.251 83.4359V58.1552L731.998 58.1552V83.4359L695.135 83.4359V143.663H732V249.446L731.998 250.289H696.355V304.441H732V316.642H635.45V304.44H670.895V250.289H635.251V222.48H635.45V143.664L672.314 143.663V83.4359ZM707.423 222.48H658.271V154.039H672.314L695.135 154.039H707.422L707.423 222.48Z" fill="#FFF200"/>
<path fill-rule="evenodd" clip-rule="evenodd" d="M672.314 83.4359L635.251 83.4359V58.1552L731.998 58.1552V83.4359L695.135 83.4359V143.663H732V249.446L731.998 250.289H696.355V304.441H732V316.642H635.45V304.44H670.895V250.289H635.251V222.48H635.45V143.664L672.314 143.663V83.4359ZM707.423 222.48H658.271V154.039H672.314L695.135 154.039H707.422L707.423 222.48Z" fill="#FFF200"/>
</g>
</g>
<g id="second scale">
<g id="Group 43">
<g id="2-DG-top-1">
<path id="Vector" d="M732 295.987L635.253 295.987L635.253 306.362L732 306.362L732 295.987Z" fill="#4CC37C"/>
</g>
<g id="2-LG-mid">
<g id="Group 30">
<path id="Vector_2" d="M731.999 128.399L635.251 128.399L635.251 144.229L731.999 144.23L731.999 128.399Z" fill="#4CC37C"/>
</g>
</g>
<g id="2-DG-mid">
<g id="Union_2">
<path d="M709.085 133.386L731.998 133.386L731.998 138.443L709.085 138.443L709.085 133.386Z" fill="#2C4F3A"/>
<path d="M635.251 133.386L658.165 133.386L658.165 138.443L635.251 138.443L635.251 133.386Z" fill="#2C4F3A"/>
</g>
</g>
<g id="2-DG-top-1_2">
<g id="Union_3">
<path d="M709.086 298.778L732 298.778L732 303.834L709.086 303.834L709.086 298.778Z" fill="#2C4F3A"/>
<path d="M635.253 298.778L658.167 298.778L658.167 303.834L635.253 303.834L635.253 298.778Z" fill="#2C4F3A"/>
</g>
</g>
<g id="2-DR-bottom">
<path id="Vector_3" d="M731.999 61.1387L709.085 61.1387L709.085 68.723L731.999 68.723L731.999 61.1387Z" fill="#B01C1C"/>
<path id="Vector_4" d="M658.165 61.1387L635.252 61.1387L635.252 68.7231L658.165 68.7231L658.165 61.1387Z" fill="#B01C1C"/>
</g>
</g>
</g>
<g id="first scale ">
<g id="1-LR-top-1">
<path id="Vector_5" d="M696.093 311.655L671.158 311.655L671.158 316.642L696.093 316.642L696.093 311.655Z" fill="#F61616"/>
</g>
<g id="1-LG-top-1">
<path id="Vector_6" d="M696.093 308.89L671.158 308.89L671.158 313.946L696.093 313.946L696.093 308.89Z" fill="#711414"/>
</g>
<g id="1-LR-top-1_2">
<g id="Union_4">
<path d="M709.086 316.474L732 316.474L732 384.732L709.086 384.732L709.086 316.474Z" fill="#16F670"/>
<path d="M635.252 316.474L658.166 316.474L658.166 384.732L635.252 384.732L635.252 316.474Z" fill="#16F670"/>
</g>
</g>
<g id="1-LG-top-1_2">
<g id="Union_5">
<path d="M709.086 308.89L732 308.89L732 313.946L709.086 313.946L709.086 308.89Z" fill="#16F670"/>
<path d="M635.253 308.89L658.167 308.89L658.167 313.946L635.253 313.946L635.253 308.89Z" fill="#16F670"/>
</g>
</g>
<g id="1-LR-bottom-2">
<g id="Union_6">
<path d="M709.086 73.7794L732 73.7794L732 81.3634L709.086 81.3634L709.086 73.7794Z" fill="#F61616"/>
<path d="M635.253 73.7792L658.167 73.7792L658.167 81.3632L635.253 81.3632L635.253 73.7792Z" fill="#F61616"/>
</g>
</g>
<g id="1-LR-bottom-1">
<g id="Union_7">
<path d="M709.086 0.465067L732 0.465069L732 63.6669L709.086 63.6669L709.086 0.465067Z" fill="#F61616"/>
<path d="M635.253 0.46506L658.167 0.465062L658.167 63.6669L635.253 63.6669L635.253 0.46506Z" fill="#F61616"/>
</g>
</g>
<g id="1-LR-mid-1">
<path id="Vector_7" d="M695.069 149.078L672.155 149.078L672.155 154.134L695.069 154.134L695.069 149.078Z" fill="#F61616"/>
</g>
<g id="1-LR-mid-2">
<path id="Vector_8" d="M696.617 169.293L671.157 169.293L671.157 240.109L696.617 240.109L696.617 169.293Z" fill="#F61616"/>
</g>
</g>
</g>
<g id="BottomGroup">
<g id="Yellow-Frame-bottom">
<g id="Union_8">
<path fill-rule="evenodd" clip-rule="evenodd" d="M694.936 680.517L732 680.517L732 705.798L635.252 705.798L635.252 680.517L672.116 680.517L672.116 620.29L635.251 620.29L635.251 514.507L635.252 513.664L670.896 513.664L670.896 459.513L635.251 459.513L635.251 447.311L731.801 447.311L731.801 459.513L696.356 459.513L696.356 513.664L732 513.664L732 541.473L731.801 541.473L731.801 620.289L694.936 620.29L694.936 680.517ZM659.827 541.473L708.98 541.473L708.98 609.915L694.936 609.915L694.936 552.855L672.116 552.855L672.116 609.915L659.829 609.915L659.827 541.473Z" fill="#FFF200"/>
<path fill-rule="evenodd" clip-rule="evenodd" d="M694.936 680.517L732 680.517L732 705.798L635.252 705.798L635.252 680.517L672.116 680.517L672.116 620.29L635.251 620.29L635.251 514.507L635.252 513.664L670.896 513.664L670.896 459.513L635.251 459.513L635.251 447.311L731.801 447.311L731.801 459.513L696.356 459.513L696.356 513.664L732 513.664L732 541.473L731.801 541.473L731.801 620.289L694.936 620.29L694.936 680.517ZM659.827 541.473L708.98 541.473L708.98 609.915L694.936 609.915L694.936 552.855L672.116 552.855L672.116 609.915L659.829 609.915L659.827 541.473Z" fill="#FFF200"/>
</g>
</g>
<g id="second scale_2">
<g id="2-LG-mid_2">
<path id="Vector_9" d="M732 619.844L635.251 619.844L635.251 634.35L732 634.35L732 619.844Z" fill="#4CC37C"/>
</g>
<g id="2-DG-mid_2">
<path id="Vector_10" d="M660.711 624.376L635.251 624.376L635.251 629.432L660.711 629.432L660.711 624.376Z" fill="#2C4F3A"/>
<path id="Vector_11" d="M731.998 624.376L709.084 624.376L709.084 629.432L731.998 629.432L731.998 624.376Z" fill="#2C4F3A"/>
</g>
<g id="2-DG-top-2">
<path id="Vector_12" d="M731.998 458.541L635.25 458.541L635.25 468.653L731.998 468.653L731.998 458.541Z" fill="#4CC37C"/>
</g>
<g id="2-DG-bottom">
<g id="Union_9">
<path d="M709.085 693.158L731.999 693.158L731.999 769L709.085 769L709.085 693.158Z" fill="#16F670"/>
<path d="M635.252 693.158L660.712 693.158L660.712 769L635.252 769L635.252 693.158Z" fill="#16F670"/>
</g>
</g>
</g>
<g id="first scale">
<g id="1-DG-top-4">
<path id="Vector_13" d="M658.166 452.991L635.253 452.991L635.253 458.047L658.166 458.047L658.166 452.991Z" fill="#F61616"/>
<path id="Vector_14" d="M732 452.991L709.086 452.991L709.086 458.047L732 458.047L732 452.991Z" fill="#F61616"/>
</g>
<g id="1-LG-top-2">
<g id="Union_10">
<path d="M709.086 460.575L732 460.575L732 465.631L709.086 465.631L709.086 460.575Z" fill="#2C4F3A"/>
<path d="M635.252 460.575L658.166 460.575L658.166 465.631L635.252 465.631L635.252 460.575Z" fill="#2C4F3A"/>
</g>
</g>
<g id="1-LG-top-1_3">
<path id="Vector_15" d="M732 680.517L709.086 680.517L709.086 688.102L732 688.102L732 680.517Z" fill="#16F670"/>
<path id="Vector_16" d="M660.712 680.517L635.253 680.517L635.253 688.102L660.712 688.102L660.712 680.517Z" fill="#16F670"/>
</g>
<g id="1-LR-top-1_3">
<path id="Vector_17" d="M696.092 384.999L670.16 384.999L670.16 458.541L696.092 458.541L696.092 384.999Z" fill="#F61616"/>
</g>
<g id="1-LG-top-2_2">
<g id="Union_11">
<path d="M709.086 384.733L732 384.733L732 450.463L709.086 450.463L709.086 384.733Z" fill="#F61616"/>
<path d="M635.252 384.733L658.166 384.733L658.166 450.463L635.252 450.463L635.252 384.733Z" fill="#F61616"/>
</g>
</g>
<g id="1-LG-top-1_4">
<path id="Vector_18" d="M660.712 693.158L635.253 693.158L635.253 703.27L660.712 703.27L660.712 693.158Z" fill="#2C4F3A"/>
<path id="Vector_19" d="M732 693.158L709.086 693.158L709.086 703.27L732 703.27L732 693.158Z" fill="#2C4F3A"/>
</g>
</g>
</g>
</g>
</g>
</svg>
