<svg width="170" height="81" viewBox="0 0 170 81" fill="none" xmlns="http://www.w3.org/2000/svg">
<path d="M43 63.8C30.1 63.8 19.7 53.2 19.7 40.3C19.8 27.5 30.5 17 43.4 17.1C56.3 17.2 66.9 27.9 66.6 41.2C66.2 53.5 56.1 63.8 43 63.8ZM36 46.9C36 46.8 36.1 46.7 36.1 46.6C36.5 46.7 36.9 46.8 37.3 46.9C38.6 47.2 39.9 47.6 41.2 47.8C41.5 47.9 42.1 47.5 42.2 47.3C42.5 45.1 42.4 42.9 40.1 41.5C39.9 41.4 39.7 41.2 39.5 41C39.5 40.9 39.6 40.9 39.6 40.8C40.4 41.2 41.2 41.6 42.2 42.2C42.3 40.9 42.5 39.8 42.3 38.9C42.2 38.4 41.2 38.1 40.9 37.5C40.5 36.9 40.4 36.1 40.2 35.4C40.2 35.3 40.7 34.8 40.8 34.9C41.4 35.3 42 35.8 42.6 36.3C42.8 36.4 42.7 36.8 42.8 37.1C42.9 38.5 42.9 40 43 41.4C43 41.8 43.2 42.2 43.3 42.7C43.4 42.7 43.5 42.8 43.7 42.8C44.4 41.9 45.2 41.1 45.9 40.1C47 38.5 48.4 38.1 49.7 39.2C49.1 40.6 48.3 41.4 47.2 41.2C46 40.9 45.4 41.6 44.8 42.4C43.7 43.8 43.4 45.3 43.6 47C43.8 48.4 43.9 48.5 45.2 47.9C47 47.1 48.8 46.2 50.6 45.4C50.4 45.8 50.1 46.1 49.8 46.3C48.3 47.4 46.6 48.3 45.2 49.5C44.7 49.9 44.3 50.7 44.4 51.4C44.6 53.9 44.9 56.4 45.2 59C45.3 59.7 45.5 60 46.3 59.9C50.5 59.3 54.2 57.5 57.2 54.4C63 48.3 64.1 41.1 61.3 33.3C57.9 24.2 47.9 18.8 38.6 21C25.4 24 19.1 38.8 26.1 50.3C29.2 55.3 33.6 58.3 39.4 59.4C40.1 59.5 40.8 59.7 41 58.6C41.2 56.2 41.6 53.9 41.7 51.5C41.8 49.5 41.4 49 39.6 48.3C38.5 47.8 37.3 47.3 36 46.9Z" fill="#82BD40"/>
<path d="M117 41C117 44.9 117 48.7 117 52.6C117 53.6 116.7 53.9 115.7 53.9C112.4 53.9 112.4 53.9 112.4 50.6C112.4 48.5 112.4 46.5 112.4 44.4C112.4 43.5 112.2 43.1 111.2 43.1C108.5 43.2 105.8 43.1 103.1 43.1C102.2 43.1 101.9 43.4 101.9 44.3C101.9 47.1 101.9 49.9 101.9 52.7C101.9 53.5 101.6 53.9 100.8 53.9C100 53.8 99.2 53.8 98.5 53.9C97.5 54 97.3 53.5 97.3 52.7C97.3 44.9 97.3 37.1 97.3 29.2C97.3 28.3 97.6 27.9 98.5 28C99.2 28.1 100 28.1 100.7 28C101.6 27.9 101.9 28.3 101.9 29.2C101.9 32 101.9 34.8 101.9 37.6C101.9 38.5 102.1 38.9 103.1 38.8C105.8 38.7 108.6 38.8 111.3 38.8C112.2 38.8 112.5 38.5 112.4 37.6C112.4 34.7 112.4 31.9 112.4 29C112.4 28.1 112.7 27.9 113.5 27.8C117 27.7 117 27.7 117 31.1C117 34.5 117 37.8 117 41Z" fill="black"/>
<path d="M124.3 46.1C124.7 46.1 125.2 46.1 125.6 46.1C126.2 46.1 126.6 46.3 126.8 47C127.3 48.8 128.7 49.5 130.3 49.8C132 50.1 133.6 49.8 134.8 48.4C135.9 47.1 135.7 45.1 134.1 44.2C132.9 43.5 131.4 43.1 130.1 42.7C128.8 42.2 127.5 41.9 126.2 41.3C121 38.9 121.2 32.7 124.8 29.7C128 27.1 133.2 27 136.5 29.5C138.1 30.7 138.9 32.4 139.2 34.4C139.3 35.3 139 35.7 138.1 35.6C137.7 35.6 137.2 35.6 136.8 35.6C135.5 35.8 134.6 35.5 134.2 34C133.8 32.5 132.4 32.1 131.1 32C129.7 31.9 128.3 32.2 127.5 33.5C126.3 35.2 126.9 37 128.9 37.7C131 38.4 133.1 39 135.1 39.8C140 41.7 141.6 46.8 138.6 50.9C137.4 52.7 135.5 53.7 133.4 54C129.8 54.7 126.4 54.2 123.8 51.3C122.9 50.3 122.5 48.8 122 47.5C121.6 46.6 122.1 46.1 123.1 46.2C123.6 46.1 124 46.1 124.3 46.1Z" fill="black"/>
<path d="M74.4 40.9C74.4 37.1 74.4 33.2 74.4 29.4C74.4 28.3 74.7 28 75.8 28C79.1 28.1 82.5 27.9 85.8 28.1C90.3 28.4 93.3 32.2 92.9 36.7C92.6 39.7 91.7 42.3 88.9 43.6C87.5 44.3 85.8 44.4 84.1 44.6C82.9 44.8 81.6 44.7 80.4 44.6C79.4 44.5 79.1 45 79.2 45.9C79.3 48.1 79.2 50.3 79.2 52.5C79.2 53.5 78.9 53.9 77.9 53.9C74.6 53.9 74.6 53.9 74.6 50.6C74.4 47.3 74.4 44.1 74.4 40.9ZM79.1 36.2C79.1 37.3 79.1 38.3 79.1 39.4C79.1 40.1 79.4 40.4 80.1 40.4C81.5 40.4 82.8 40.4 84.2 40.4C87.1 40.4 88.5 38.9 88.3 36C88.1 33.9 87.1 32.6 85 32.4C83.3 32.2 81.6 32.3 79.9 32.3C79.7 32.3 79.2 32.8 79.2 33.1C79.1 34 79.1 35.1 79.1 36.2Z" fill="black"/>
<path d="M33.6 36.5C34.9 37.5 35.2 38.5 34.8 39.7C35.9 39.9 36.9 40 38 40.1C37.2 41.4 35.6 41.9 34.5 41.5C34.4 41.5 34.3 41.5 34.3 41.4C33.8 40.5 33.2 39.6 33 38.6C32.9 38.1 33.4 37.3 33.6 36.5Z" fill="#82BD40"/>
<path d="M38.5 42.3C40.6 42.9 41.2 44 40.7 46.4C38.6 46.2 37.6 44.4 38.5 42.3Z" fill="#82BD40"/>
<path d="M30.7 36.9C29.2 37.6 27.6 37.3 26.9 36.2C26.3 35.3 26.6 34.8 27.6 34.7C28.9 34.5 30.2 35.5 30.7 36.9Z" fill="#82BD40"/>
<path d="M35.4 25.7C37.3 24.6 38.6 24.9 39.8 26.9C38.6 28.4 36.7 27.6 35.4 25.7Z" fill="#82BD40"/>
<path d="M53.2 44.5C52.5 44.5 52.2 44.2 52.4 43.4C52.7 42.1 53.9 41.4 55.2 41.7C55.4 41.8 55.8 42.1 55.8 42.4C55.8 43.5 54.5 44.5 53.2 44.5Z" fill="#82BD40"/>
<path d="M56 29.6C54.7 31.1 53.3 31.2 51.7 29.9C52 29.1 52.6 28.6 53.5 28.5C54.5 28.4 55.4 28.7 56 29.6Z" fill="#82BD40"/>
<path d="M32.1 49.5C32 49.5 31.6 49.3 31.1 49.2C31.3 48.7 31.3 48.2 31.6 47.9C32.2 47 33.4 46.7 34.3 47.2C34.5 47.3 34.7 47.8 34.7 48C34.6 48.8 33.5 49.5 32.1 49.5Z" fill="#82BD40"/>
<path d="M33.3 42C32.3 43.7 30.9 43.8 28.6 42.4C29.7 41.1 31.8 40.9 33.3 42Z" fill="#82BD40"/>
<path d="M34.1 35.6C35.4 35.1 36.5 34.7 37.6 35.5C37.9 35.7 38.2 36.3 38.2 36.6C38.1 36.9 37.6 37.2 37.2 37.3C35.8 37.7 34.9 36.8 34.1 35.6Z" fill="#82BD40"/>
<path d="M37.2 38.3C38.7 37.3 40.1 37.6 40.8 38.8C41.1 39.3 41 39.6 40.5 39.9C39.1 40.6 38.1 40.1 37.2 38.3Z" fill="#82BD40"/>
<path d="M57 50.1C55.3 50.6 54 50.2 53.7 48.9C53.5 48.2 53.7 47.9 54.4 47.8C55.8 47.6 56.4 48.2 57 50.1Z" fill="#82BD40"/>
<path d="M53.9 47.5C52.7 47.3 51.7 46.7 51.7 46.1C51.7 45.5 53.1 44.8 54 45.2C54.7 45.4 55.2 46.1 55.8 46.5C55.2 46.8 54.6 47.2 53.9 47.5Z" fill="#82BD40"/>
<path d="M54.2 36.8C55.3 38.3 55.2 39.6 54 40.6C53.5 41 53.1 40.9 52.9 40.3C52.4 39 52.8 37.8 54.2 36.8Z" fill="#82BD40"/>
<path d="M44.8 28.6C45.5 30.3 45.2 31.5 44.2 32.2C43.5 32.6 43.1 32.5 43 31.7C42.7 30.3 43.4 29.1 44.8 28.6Z" fill="#82BD40"/>
<path d="M41.6 26.5C42.4 27.3 43.2 28.2 42.8 29.4C42.7 29.8 42.4 30.3 42.1 30.3C41.8 30.4 41.3 30 41.1 29.7C40.3 28.9 40.5 28 41.6 26.5Z" fill="#82BD40"/>
<path d="M52.9 48.6C51.3 49.7 49.8 49.4 48.9 47.6C50.4 46.5 52.1 46.9 52.9 48.6Z" fill="#82BD40"/>
<path d="M49.4 31.5C50.1 33.3 49.8 34.3 48.5 34.8C47.7 35.1 47.4 34.8 47.4 34.1C47.3 32.6 47.8 31.9 49.4 31.5Z" fill="#82BD40"/>
<path d="M33.1 31.5C34 31.7 34.9 31.7 35.5 32.1C35.9 32.4 36 33.2 36.3 33.7C35.8 33.8 35.2 34.1 34.7 34C33.6 33.8 33.2 32.9 33.1 31.5Z" fill="#82BD40"/>
<path d="M50.2 34.7C50 32.9 50.4 32 51.7 31.4C52.4 31.1 52.7 31.3 52.7 32.1C52.9 33.4 51.9 34.4 50.2 34.7Z" fill="#82BD40"/>
<path d="M39.1 35.7C37.4 34.9 37 34 37.5 32C39.4 32.3 40.2 34.1 39.1 35.7Z" fill="#82BD40"/>
<path d="M45.6 43.1C46.4 44.2 46.5 45.6 45.8 46.4C45.6 46.7 45.1 47 44.8 46.9C44.5 46.8 44.2 46.4 44.1 46.1C43.8 44.9 44.3 43.9 45.6 43.1Z" fill="#82BD40"/>
<path d="M35.3 27C36.3 27.6 37.2 28.2 37.1 29.4C37.1 29.8 36.7 30.3 36.6 30.7C36.2 30.5 35.6 30.4 35.3 30.1C34.4 29.1 34.8 28.1 35.3 27Z" fill="#82BD40"/>
<path d="M50.8 27.5C51.4 29.4 51.1 30.3 49.8 30.7C49 31 48.7 30.7 48.6 30C48.5 28.9 49.2 28.1 50.8 27.5Z" fill="#82BD40"/>
<path d="M60 41.9C59.5 43.8 58 44.1 57 43.4C56.3 43 56.4 42.6 56.8 42.1C57.5 41.3 58.5 41.2 60 41.9Z" fill="#82BD40"/>
<path d="M28.8 31.6C30.2 30.8 31.5 30.9 32.4 31.8C33 32.4 33 32.8 32.1 33.1C30.9 33.5 30 33.1 28.8 31.6Z" fill="#82BD40"/>
<path d="M42.5 25.8C41.1 26 40 25.6 39.6 24.6C39.5 24.2 39.4 23.7 39.6 23.4C39.7 23.2 40.3 23.2 40.7 23.3C41.7 23.4 42.2 24.1 42.5 25.8Z" fill="#82BD40"/>
<path d="M38.9 28.6C40.4 29.4 40.9 30.2 40.7 31.3C40.6 32.3 40 32.5 39.3 31.9C38.2 31.2 38.1 30.1 38.9 28.6Z" fill="#82BD40"/>
<path d="M26 39.6C27.5 38.2 29.1 38.5 29.8 40.3C28.6 41.4 27.4 41.1 26 39.6Z" fill="#82BD40"/>
<path d="M49 52.1C47.4 51.5 46.9 50.5 47.2 49.1C47.4 48.3 47.8 48.2 48.5 48.6C49.4 49.4 49.6 50.5 49 52.1Z" fill="#82BD40"/>
<path d="M34.5 43.1C34.9 44.5 34.3 45.6 33 46C32.3 46.2 32.1 46 32.1 45.3C32.1 43.8 32.9 43 34.5 43.1Z" fill="#82BD40"/>
<path d="M25.8 44.4C26.7 43 27.7 42.5 28.7 43.1C29.4 43.5 29.4 43.9 28.9 44.5C28.2 45.5 27 45.5 25.8 44.4Z" fill="#82BD40"/>
<path d="M46.8 44.4C47.2 43.1 47.8 42.2 49 42C49.9 41.8 50.2 42.2 50 43C49.8 43.9 49.2 44.3 48.4 44.4C47.9 44.5 47.4 44.4 46.8 44.4Z" fill="#82BD40"/>
<path d="M36.7 42.5C37.7 43.9 37.8 44.8 37 45.6C36.3 46.3 35.6 46.2 35.3 45.2C34.9 43.8 35.9 43.2 36.7 42.5Z" fill="#82BD40"/>
<path d="M57.7 35.7C56.4 34.2 56.6 32.8 58.1 32C59.4 33.3 59.3 34.6 57.7 35.7Z" fill="#82BD40"/>
<path d="M51.1 38.9C52.1 39.7 52.7 40.6 52.2 41.8C52.1 42.2 51.7 42.4 51.4 42.7C51.1 42.4 50.6 42.2 50.5 41.8C50 40.8 50.4 39.9 51.1 38.9Z" fill="#82BD40"/>
<path d="M44 23.6C45.3 24.3 45.9 25.1 45.5 26.2C45.4 26.6 45 26.9 44.7 27.3C44.4 27 43.8 26.6 43.7 26.3C43.7 25.4 43.9 24.5 44 23.6Z" fill="#82BD40"/>
<path d="M46.4 26.6C47.6 27.2 48.2 28.5 47.7 29.6C47.4 30.2 47.1 30.3 46.5 29.9C45.6 29.1 45.6 27.7 46.4 26.6Z" fill="#82BD40"/>
<path d="M46.5 31.2C47.3 32.9 46.9 33.9 45.2 34.7C44.1 33.5 44.6 32.1 46.5 31.2Z" fill="#82BD40"/>
<path d="M45.2 36.6C46 37.9 46 38.9 45.2 39.6C44.5 40.3 44 40.1 43.7 39.2C43.4 38.2 43.8 37.5 45.2 36.6Z" fill="#82BD40"/>
<path d="M60 35.7C60 37.4 59.6 38.2 58.5 38.5C57.7 38.7 57.3 38.3 57.5 37.5C57.7 36.2 58.8 35.9 60 35.7Z" fill="#82BD40"/>
<path d="M51 37.4C50.9 37.3 50.4 37 50.4 36.7C50.3 36 51.5 35 52.4 35.1C52.8 35.1 53.4 35.5 53.5 35.8C53.5 36.5 52.3 37.4 51 37.4Z" fill="#82BD40"/>
<path d="M51.1 25.2C50.8 26.7 50 27.4 48.8 27.3C48.1 27.3 48 27 48.2 26.4C48.6 25.1 49.5 24.7 51.1 25.2Z" fill="#82BD40"/>
<path d="M30.6 44.2C31.6 46 31.5 46.6 30.1 47.7C28.7 46.8 28.9 45.4 30.6 44.2Z" fill="#82BD40"/>
<path d="M59.2 39.8C58.3 40.7 57.4 41.2 56.3 40.8C56 40.7 55.5 40.4 55.5 40.1C55.5 39.8 55.8 39.4 56.1 39.3C57.3 38.7 58.2 39.2 59.2 39.8Z" fill="#82BD40"/>
<path d="M30.1 37.9C31.3 38.1 32.2 38.3 32.6 39.4C32.7 39.7 32.6 40.3 32.4 40.6C32.2 40.8 31.6 40.7 31.3 40.5C30.3 40 30 39.1 30.1 37.9Z" fill="#82BD40"/>
<path d="M49.3 36.2C48.8 37 48.3 37.8 47.2 37.7C46.8 37.7 46.4 37.3 46.1 37C46.3 36.6 46.5 36 46.8 35.9C47.6 35.7 48.4 35.7 49.2 35.7C49.3 35.8 49.3 36 49.3 36.2Z" fill="#82BD40"/>
<path d="M55.6 44.6C57 43.5 58.5 43.8 59.2 45.4C57.7 46.2 56.6 46 55.6 44.6Z" fill="#82BD40"/>
<path d="M56 34.6C57.1 35.5 57.1 36.6 56.1 38C54.5 37 54.5 35.7 56 34.6Z" fill="#82BD40"/>
<path d="M53.6 34C53.5 32.8 53.7 31.8 54.8 31.3C55.5 31 55.8 31.1 55.8 32C55.9 33 55.1 33.8 53.6 34Z" fill="#82BD40"/>
<path d="M31.9 37.2C31.1 36.3 30.5 35.5 31.2 34.4C31.4 34.1 31.8 33.8 32 33.8C32.3 33.9 32.6 34.3 32.7 34.6C33 35.6 32.9 36.5 31.9 37.2Z" fill="#82BD40"/>
<path d="M32.6 27.4C34.1 28.3 34.2 29.6 32.9 30.8C31.7 29.9 31.6 28.7 32.6 27.4Z" fill="#82BD40"/>
<path d="M41.4 32.8C42.7 32.7 43.6 33.4 43.6 34.5C43.6 35.2 43.3 35.3 42.7 35.2C41.7 35 41.2 34.1 41.4 32.8Z" fill="#82BD40"/>
</svg>
